<svg width="50" height="50" viewBox="0 0 50 50" fill="none" xmlns="http://www.w3.org/2000/svg">
<path d="M24.9824 1.00001C24.8265 1.0024 24.6734 1.04119 24.5352 1.11329L3.53516 12.1133C3.37351 12.1982 3.23819 12.3257 3.14385 12.482C3.04952 12.6383 2.99977 12.8174 3 13V16C3.00003 16.2652 3.10539 16.5196 3.29292 16.7071C3.48045 16.8946 3.73479 17 4 17H6V19C6.00003 19.2652 6.10539 19.5196 6.29292 19.7071C6.48045 19.8946 6.73479 20 7 20V38H5C4.73479 38 4.48045 38.1054 4.29292 38.2929C4.10539 38.4805 4.00003 38.7348 4 39V41H3C2.73479 41 2.48045 41.1054 2.29292 41.2929C2.10539 41.4805 2.00003 41.7348 2 42V45C2.00003 45.2652 2.10539 45.5196 2.29292 45.7071C2.48045 45.8946 2.73479 46 3 46H47C47.2652 46 47.5195 45.8946 47.7071 45.7071C47.8946 45.5196 48 45.2652 48 45V42C48 41.7348 47.8946 41.4805 47.7071 41.2929C47.5195 41.1054 47.2652 41 47 41H46V39C46 38.7348 45.8946 38.4805 45.7071 38.2929C45.5195 38.1054 45.2652 38 45 38H43V20C43.2652 20 43.5195 19.8946 43.7071 19.7071C43.8946 19.5196 44 19.2652 44 19V17H46C46.2652 17 46.5195 16.8946 46.7071 16.7071C46.8946 16.5196 47 16.2652 47 16V13C47.0002 12.8174 46.9505 12.6383 46.8561 12.482C46.7618 12.3257 46.6265 12.1982 46.4648 12.1133L25.4648 1.11329C25.3161 1.03566 25.1502 0.996703 24.9824 1.00001ZM25 3.13087L45 13.6055V15H13H7H5V13.6055L25 3.13087ZM25 6.00001C22.8027 6.00001 21 7.80272 21 10C21 12.1973 22.8027 14 25 14C27.1973 14 29 12.1973 29 10C29 7.80272 27.1973 6.00001 25 6.00001ZM25 8.00001C26.1164 8.00001 27 8.8836 27 10C27 11.1164 26.1164 12 25 12C23.8836 12 23 11.1164 23 10C23 8.8836 23.8836 8.00001 25 8.00001ZM8 17H12V18H8V17ZM14 17H16V19C16 19.2652 16.1054 19.5196 16.2929 19.7071C16.4805 19.8946 16.7348 20 17 20V38H13V20C13.2652 20 13.5195 19.8946 13.7071 19.7071C13.8946 19.5196 14 19.2652 14 19V17ZM18 17H22V18H18V17ZM24 17H26V19C26 19.2652 26.1054 19.5196 26.2929 19.7071C26.4805 19.8946 26.7348 20 27 20V38H23V20C23.2652 20 23.5195 19.8946 23.7071 19.7071C23.8946 19.5196 24 19.2652 24 19V17ZM28 17H32V18H28V17ZM34 17H36V19C36 19.2652 36.1054 19.5196 36.2929 19.7071C36.4805 19.8946 36.7348 20 37 20V38H33V20C33.2652 20 33.5195 19.8946 33.7071 19.7071C33.8946 19.5196 34 19.2652 34 19V17ZM38 17H42V18H38V17ZM9 20H11V38H9V20ZM19 20H21V38H19V20ZM29 20H31V38H29V20ZM39 20H41V38H39V20ZM6 40H44V42C44 42.2652 44.1054 42.5196 44.2929 42.7071C44.4805 42.8946 44.7348 43 45 43H46V44H4V43H5C5.26521 43 5.51955 42.8946 5.70708 42.7071C5.89461 42.5196 5.99997 42.2652 6 42V40Z" fill="#0050A2"/>
</svg>
