<svg width="50" height="50" viewBox="0 0 50 50" fill="none" xmlns="http://www.w3.org/2000/svg">
<path d="M30.0918 2C28.394 2 27 3.40146 27 5.09961V16C27 17.6456 28.3601 19 30 19H31.8398C31.7876 19.3122 31.7893 19.7513 31.6875 19.9629C31.48 20.3943 31.1627 20.7341 30.4844 21.1426C30.2969 21.2552 30.1515 21.4262 30.0704 21.6294C29.9894 21.8325 29.9772 22.0567 30.0357 22.2674C30.0942 22.4782 30.2202 22.6639 30.3944 22.7963C30.5685 22.9286 30.7813 23.0001 31 23C32.2037 23 33.582 22.7662 34.8594 22.0547C35.9512 21.4465 36.8862 20.3854 37.5605 19H47C48.6399 19 50 17.6456 50 16V5.09961C50 3.40146 48.606 2 46.9082 2H30.0918ZM30.0918 4H46.9082C47.5104 4 48 4.48776 48 5.09961V16C48 16.6644 47.6601 17 47 17H37C36.795 16.9999 36.595 17.0628 36.427 17.1802C36.2589 17.2976 36.131 17.4638 36.0605 17.6562C35.5623 19.021 34.786 19.8076 33.8867 20.3086C33.7881 20.3635 33.6721 20.3371 33.5703 20.3848C33.8349 19.6573 34 18.9038 34 18C34 17.7348 33.8946 17.4805 33.7071 17.2929C33.5195 17.1054 33.2652 17 33 17H30C29.3399 17 29 16.6644 29 16V5.09961C29 4.48776 29.4896 4 30.0918 4ZM8 8C5.80267 8 4 9.80267 4 12V34C4 34.7307 4.21365 35.4084 4.56055 36H2C1.73479 36 1.48045 36.1054 1.29292 36.2929C1.10539 36.4805 1.00003 36.7348 1 37C1 39.7495 3.25048 42 6 42H44C46.7495 42 49 39.7495 49 37C49 36.7348 48.8946 36.4805 48.7071 36.2929C48.5195 36.1054 48.2652 36 48 36H45.4395C45.7864 35.4084 46 34.7307 46 34V21H44V34C44 35.1167 43.1167 36 42 36H8C6.88333 36 6 35.1167 6 34V12C6 10.8833 6.88333 10 8 10H25V8H8ZM3.41211 38H8H42H46.5879C46.1508 39.1125 45.2759 40 44 40H6C4.72415 40 3.8492 39.1125 3.41211 38Z" fill="#0050A2"/>
</svg>
