<svg width="50" height="50" viewBox="0 0 50 50" fill="none" xmlns="http://www.w3.org/2000/svg">
<g clip-path="url(#clip0)">
<path d="M0.812631 0C0.336069 0.0898438 -0.00768199 0.511719 0.00013051 1V41C0.00013051 41.5508 0.44935 42 1.00013 42H17.0001V40H2.00013V2H48.0001V40H33.0001V42H49.0001C49.5509 42 50.0001 41.5508 50.0001 41V1C50.0001 0.449219 49.5509 0 49.0001 0H1.00013C0.968881 0 0.937631 0 0.906381 0C0.875131 0 0.843881 0 0.812631 0ZM10.0001 9V11H40.0001V9H10.0001ZM10.0001 14V16H40.0001V14H10.0001ZM10.0001 19V21H40.0001V19H10.0001ZM24.9064 23.9062C23.8595 23.9062 23.0275 24.5312 22.5001 25.375C21.5236 25.0625 20.4572 25.1562 19.6564 25.8438C18.8439 26.5391 18.5939 27.5703 18.7189 28.5625C17.7658 28.9609 17.0275 29.7188 16.8126 30.6875C16.8126 30.7188 16.8126 30.75 16.8126 30.7812C16.6915 31.7461 17.1212 32.6289 17.8126 33.3125C17.3595 34.2188 17.1915 35.2695 17.7189 36.1875C18.0158 36.707 18.4806 37.0469 19.0001 37.2812V49C19.0079 49.3516 19.2033 49.6758 19.5079 49.8477C19.8165 50.0234 20.1954 50.0195 20.5001 49.8438L25.0001 47.1562L29.5001 49.8438C29.8048 50.0195 30.1837 50.0234 30.4923 49.8477C30.797 49.6758 30.9923 49.3516 31.0001 49V36.875C31.2345 36.7031 31.4493 36.5273 31.6251 36.2812C31.6368 36.25 31.6486 36.2188 31.6564 36.1875C32.1681 35.2891 32.0509 34.2695 31.6251 33.375C32.5197 32.7148 33.1095 31.7695 33.0001 30.7812C32.9923 30.75 32.9806 30.7188 32.9689 30.6875C32.7423 29.6758 31.9923 28.9414 31.0626 28.5312C31.1759 27.5508 30.9611 26.5352 30.1564 25.8438C29.3243 25.1328 28.2618 25.1133 27.3126 25.375C26.7814 24.5586 25.9845 23.9062 24.9064 23.9062ZM24.9064 25.9062C25.3634 25.9062 25.6954 26.1797 25.8751 26.6562C25.9845 26.9375 26.2111 27.1562 26.5001 27.25C26.5158 27.2578 26.6486 27.2617 26.6876 27.2812C26.7384 27.2969 26.6993 27.3125 26.8126 27.3125C26.9064 27.3477 26.9103 27.4062 27.0939 27.4062C27.2579 27.4023 27.4181 27.3594 27.5626 27.2812C28.0939 27.0156 28.465 27.0195 28.8439 27.3438C29.2384 27.6836 29.3204 28.1289 29.1564 28.5625C29.0392 28.9102 29.1251 29.293 29.3751 29.5625C29.4142 29.6406 29.4572 29.7695 29.5939 29.9062C29.7306 30.0469 29.9025 30.1445 30.0939 30.1875C30.6525 30.3125 30.8673 30.5547 31.0001 31.0938C31.0392 31.5547 30.965 31.8047 30.2501 32.0625C29.8556 32.207 29.5939 32.582 29.5939 33V33.4062C29.5978 33.6094 29.6642 33.8047 29.7814 33.9688C30.0665 34.3711 30.09 34.8398 29.9376 35.1562C29.629 35.5469 29.1837 35.7656 28.8126 35.7188C28.5118 35.6836 28.215 35.7891 28.0001 36L27.6876 36.2812C27.5001 36.4727 27.3986 36.7344 27.4064 37C27.4064 37.5312 27.1993 37.8008 26.7501 37.9688C26.7384 37.9688 26.7306 37.9688 26.7189 37.9688C26.7189 37.957 26.5548 38 26.4064 38C26.1408 38 25.8751 37.875 25.5939 37.5938C25.4103 37.4141 25.1642 37.3164 24.9064 37.3125H24.4064C24.1408 37.3047 23.879 37.4062 23.6876 37.5938C23.2853 37.9961 22.9533 38.1133 22.5626 37.9688C22.1798 37.8242 21.9064 37.3828 21.9064 37C21.9025 36.7266 21.7931 36.4688 21.5939 36.2812L21.3126 36C21.09 35.7812 20.7775 35.6758 20.4689 35.7188C20.0743 35.7695 19.6642 35.5625 19.4689 35.2188C19.2892 34.9023 19.3243 34.3906 19.6251 33.9688C19.7423 33.8047 19.8087 33.6094 19.8126 33.4062V33C19.8087 32.6328 19.6056 32.2969 19.2814 32.125C19.0158 31.9727 18.8009 31.4727 18.8126 31.0938C18.9493 30.543 19.1993 30.2344 19.6251 30.1875C19.8478 30.1641 20.0587 30.0625 20.2189 29.9062C20.3712 29.7539 20.4337 29.5977 20.4689 29.5312C20.6876 29.2578 20.7462 28.8906 20.6251 28.5625C20.4611 28.1289 20.5431 27.6836 20.9376 27.3438C21.3204 27.0156 21.8439 27.0156 22.1251 27.2188C22.4298 27.4297 22.8283 27.4531 23.1564 27.2812C23.1681 27.2812 23.1759 27.2812 23.1876 27.2812C23.2189 27.2734 23.2501 27.2617 23.2814 27.25C23.6212 27.1484 23.8829 26.875 23.9689 26.5312C24.047 26.2266 24.4493 25.9062 24.9064 25.9062ZM29.0001 38.2812V47.25L25.5001 45.1562C25.1915 44.9766 24.8087 44.9766 24.5001 45.1562L21.0001 47.25V39.3125C21.2345 39.5352 21.5118 39.7188 21.8439 39.8438C22.8361 40.2148 23.7892 39.8555 24.5626 39.3125C24.5704 39.3086 24.5861 39.3164 24.5939 39.3125C24.6017 39.3164 24.6173 39.3086 24.6251 39.3125C25.1056 39.6797 25.6837 40 26.4064 40C26.5861 40 26.9728 39.9961 27.4376 39.8125C27.4533 39.7969 27.4806 39.7891 27.5001 39.7812C27.5275 39.7695 27.5353 39.7969 27.5626 39.7812V39.75C28.2228 39.4609 28.7111 38.9297 29.0001 38.2812Z" fill="#0050A2"/>
</g>
<defs>
<clipPath id="clip0">
<rect width="50" height="50" fill="white"/>
</clipPath>
</defs>
</svg>
