<svg width="50" height="50" viewBox="0 0 50 50" fill="none" xmlns="http://www.w3.org/2000/svg">
<path d="M25 0.0976562C22.548 0.0976562 20.4763 1.46265 17.4043 3.04297C14.3323 4.62329 10.2189 6.53083 3.78516 7.94336L3 8.11523V8.91992C3 24.2404 8.35691 34.47 13.7363 40.8184C19.1157 47.1667 24.5801 49.6992 24.5801 49.6992L25.0215 49.9023L25.4531 49.6816C25.4531 49.6816 47 38.5768 47 8.91992V8.11523L46.2148 7.94336C39.7811 6.53083 35.6677 4.62329 32.5957 3.04297C29.5237 1.46265 27.452 0.0976562 25 0.0976562ZM25 2.09766C26.646 2.09766 28.5439 3.20809 31.6816 4.82227C34.66 6.35443 38.8615 8.21233 44.9355 9.64453C44.5813 36.7761 26.278 46.9367 24.9844 47.6191C24.3597 47.3157 20.0312 45.1516 15.2637 39.5254C10.234 33.5898 5.24032 24.058 5.0625 9.64453C11.1377 8.21227 15.3397 6.3546 18.3184 4.82227C21.4561 3.20809 23.354 2.09766 25 2.09766ZM25.0625 11.9102C24.6625 11.9102 24.2625 12.2102 24.0625 12.4102L21.6621 18.7109L14.9629 19.1113C14.5629 19.1113 14.1625 19.4105 14.0625 19.8105C13.9625 20.2105 14.0629 20.7102 14.4629 20.9102L19.5625 25.1113L17.8633 31.6113C17.7633 32.0113 17.9637 32.5109 18.2637 32.7109C18.4637 32.8109 18.6633 32.9102 18.8633 32.9102C19.0633 32.9102 19.2629 32.8109 19.4629 32.7109L25.0625 29.1113L30.6621 32.8105C30.9621 33.1105 31.4637 33.0105 31.7637 32.8105C32.1637 32.5105 32.2621 32.1109 32.1621 31.7109L30.4629 25.2109L35.6621 21.0117C35.9621 20.7117 36.0629 20.3102 35.9629 19.9102C35.8629 19.5102 35.4625 19.2109 35.0625 19.2109L28.3633 18.8105L25.9629 12.5117C25.8629 12.2117 25.4625 11.9102 25.0625 11.9102ZM25.0625 15.7109L26.6621 20.2109C26.8621 20.5109 27.1625 20.8105 27.5625 20.8105L32.3633 21.1113L28.6621 24.1113C28.3621 24.3113 28.2633 24.7113 28.3633 25.1113L29.5625 29.7109L25.5625 27.1113C25.4625 27.0113 25.2625 26.9102 25.0625 26.9102C24.8625 26.9102 24.6629 27.0117 24.4629 27.0117L20.4629 29.6113L21.6621 25.0117C21.7621 24.7117 21.6633 24.2117 21.3633 24.0117L17.6621 21.0117L22.4629 20.8105C22.8629 20.7105 23.1633 20.5113 23.3633 20.1113L25.0625 15.7109Z" fill="#0050A2"/>
</svg>
