<svg width="50" height="50" viewBox="0 0 50 50" fill="none" xmlns="http://www.w3.org/2000/svg">
<g clip-path="url(#clip0)">
<path d="M34.2188 4.125C33.1993 4.1836 32.1954 4.4336 31.2501 4.90625L25.7501 7.59375H10.1251L1.25009 5.4375C1.11728 5.39844 0.980563 5.39063 0.843844 5.40625C0.359469 5.46485 -0.00771834 5.86328 -0.0311558 6.35157C-0.0545933 6.83594 0.273532 7.26953 0.750094 7.375L9.75009 9.5625L9.87509 9.59375H21.6563L13.1563 13.75C13.1212 13.7656 13.0978 13.7969 13.0626 13.8125C11.7423 14.3945 11.3946 16.1992 12.3751 17.25L12.3438 17.2813C12.3595 17.2969 12.3907 17.2969 12.4063 17.3125C15.3829 20.5742 20.0977 21.6563 24.2501 20.0313H24.2813L30.1563 17.75L42.2813 29.9063C43.1993 30.8242 43.1993 32.2695 42.2813 33.1875C41.3634 34.1055 39.9181 34.1055 39.0001 33.1875C38.6017 32.8672 38.0274 32.8984 37.6642 33.2578C37.3048 33.6211 37.2735 34.1953 37.5938 34.5938C38.5118 35.5117 38.5118 36.9883 37.5938 37.9063C36.6759 38.8242 35.2306 38.8242 34.3126 37.9063L33.5938 37.1875C33.1954 36.8672 32.6212 36.8984 32.2579 37.2578C31.8985 37.6211 31.8673 38.1953 32.1876 38.5938C33.1056 39.5117 33.1056 40.9883 32.1876 41.9063C31.2696 42.8242 29.8243 42.8242 28.9063 41.9063L28.2188 41.1875C27.8321 40.7891 27.1954 40.7852 26.797 41.1719C26.3985 41.5586 26.3946 42.1953 26.7813 42.5938C27.6993 43.5117 27.6993 44.9883 26.7813 45.9063C25.8634 46.8242 24.4181 46.8242 23.5001 45.9063L22.2501 44.6563L23.0001 43.9063C24.4649 42.4414 24.4649 40.0586 23.0001 38.5938C22.2696 37.8633 21.3048 37.5 20.3438 37.5C20.3321 37.5 20.3243 37.5 20.3126 37.5C20.3282 36.5156 19.9649 35.5273 19.2188 34.7813C18.4884 34.0508 17.5235 33.6875 16.5626 33.6875C16.5118 33.6875 16.4571 33.6836 16.4063 33.6875C16.4376 32.6836 16.0782 31.6719 15.3126 30.9063C14.5821 30.1758 13.6173 29.7813 12.6563 29.7813C12.6056 29.7813 12.5509 29.7773 12.5001 29.7813C12.5313 28.7773 12.172 27.7656 11.4063 27C10.6759 26.2695 9.71103 25.9063 8.75009 25.9063C7.78916 25.9063 6.82431 26.2695 6.09384 27L5.18759 27.9063L1.15634 27.2188C1.09384 27.2031 1.03134 27.1914 0.968844 27.1875C0.418063 27.1523 -0.0584996 27.5742 -0.0936558 28.125C-0.128812 28.6758 0.293063 29.1523 0.843844 29.1875L4.12509 29.7813C3.82822 31.0117 4.13681 32.3555 5.09384 33.3125C5.86728 34.0859 6.89463 34.4492 7.90634 34.4063C7.86338 35.418 8.22666 36.4453 9.00009 37.2188C9.77353 37.9922 10.8009 38.3555 11.8126 38.3125C11.7813 39.3164 12.1407 40.3281 12.9063 41.0938C13.6524 41.8398 14.6407 42.2031 15.6251 42.1875C15.6017 43.1758 15.9532 44.1719 16.6876 44.9063L16.7188 44.9375C17.7618 45.957 19.2618 46.2266 20.5626 45.7813L22.0938 47.3125C23.7735 48.9922 26.5392 48.9922 28.2188 47.3125C29.0352 46.4961 29.4142 45.418 29.4376 44.3438C30.8829 44.7266 32.4688 44.4375 33.5938 43.3125C34.4103 42.4961 34.8204 41.418 34.8438 40.3438C36.2853 40.7227 37.8751 40.4375 39.0001 39.3125C39.961 38.3516 40.3243 37.043 40.1876 35.7813C41.4493 35.9219 42.7579 35.5547 43.7188 34.5938C44.7931 33.5195 45.1759 32.0117 44.8751 30.625L45.4688 30.0313L49.1563 29.5C49.7071 29.4141 50.086 28.8945 50.0001 28.3438C49.9142 27.793 49.3946 27.4141 48.8438 27.5L44.8438 28.125L44.5313 28.1563L43.9376 28.75C43.8673 28.668 43.797 28.5781 43.7188 28.5L31.4063 16.1875C31.3595 16.1406 31.3048 16.0977 31.2501 16.0625C31.2384 16.0508 31.2306 16.043 31.2188 16.0313C30.9571 15.6445 30.4649 15.4922 30.0313 15.6563L23.5313 18.1563C20.1134 19.5078 16.2657 18.6289 13.8438 15.9375L13.8126 15.9063C13.6837 15.7773 13.6759 15.6875 13.8438 15.625H13.9063L13.9376 15.5938L26.2813 9.5625C26.4923 9.53125 26.6915 9.4336 26.8438 9.28125L32.1251 6.6875H32.1563C34.0001 5.76563 36.1524 5.95313 37.8438 7.09375L38.2188 7.53125L38.3126 7.65625L38.4376 7.71875C40.254 8.96875 42.4415 9.30078 44.5001 8.75V8.78125L44.5626 8.75L49.2188 7.78125C49.7618 7.66016 50.1056 7.1211 49.9845 6.57813C49.8634 6.03516 49.3243 5.69141 48.7813 5.8125L44.0938 6.8125L44.0626 6.84375H44.0313C42.5392 7.25782 41.0001 6.98438 39.6563 6.09375L39.2813 5.65625L39.1876 5.5625L39.0626 5.46875C37.9142 4.66407 36.6017 4.22657 35.2501 4.125C34.9103 4.10157 34.5587 4.10547 34.2188 4.125ZM8.75009 27.8438C9.18759 27.8438 9.63291 28.0391 10.0001 28.4063C10.7345 29.1406 10.7345 30.1719 10.0001 30.9063L9.21884 31.6563L9.12509 31.75L9.00009 31.9063C8.26572 32.6406 7.23447 32.6406 6.50009 31.9063C5.89853 31.3047 5.80869 30.5156 6.18759 29.8438C6.36337 29.7188 6.49228 29.5469 6.56259 29.3438L7.37509 28.5625L7.50009 28.4063C7.86728 28.0391 8.31259 27.8438 8.75009 27.8438ZM12.6563 31.75C13.0938 31.75 13.5392 31.9453 13.9063 32.3125C14.6407 33.0469 14.6407 34.0469 13.9063 34.7813L12.9063 35.7813C12.172 36.5156 11.1407 36.5156 10.4063 35.7813C9.67197 35.0469 9.67197 34.0469 10.4063 33.3125L11.4063 32.3125C11.7735 31.9453 12.2188 31.75 12.6563 31.75ZM16.5626 35.6563C17.0001 35.6563 17.4142 35.8516 17.7813 36.2188C18.3868 36.8242 18.4884 37.6133 18.0938 38.2813C17.9571 38.3828 17.8126 38.4688 17.6876 38.5938L16.6876 39.5938V39.625H16.6563C16.547 39.7461 16.4649 39.8711 16.3751 40C15.7071 40.3945 14.9181 40.293 14.3126 39.6875C13.5782 38.9531 13.5782 37.9531 14.3126 37.2188L15.0626 36.4375L15.2501 36.2813L15.3126 36.2188C15.6798 35.8516 16.1251 35.6563 16.5626 35.6563ZM20.3438 39.4688C20.7813 39.4688 21.2267 39.6328 21.5938 40C22.3282 40.7344 22.3282 41.7656 21.5938 42.5L20.5938 43.5C20.5079 43.5859 20.4376 43.6836 20.3438 43.75C20.336 43.7539 20.3204 43.7461 20.3126 43.75C19.6134 44.2344 18.7384 44.1445 18.0938 43.5C17.6212 43.0273 17.5118 42.082 17.8438 41.375C17.9688 41.2773 18.1056 41.207 18.2188 41.0938L19.2188 40.0938C19.3517 39.9609 19.4532 39.8047 19.5626 39.6563C19.8126 39.5313 20.0821 39.4688 20.3438 39.4688Z" fill="#0050A2"/>
</g>
<defs>
<clipPath id="clip0">
<rect width="50" height="50" fill="white"/>
</clipPath>
</defs>
</svg>
