<svg width="30" height="30" viewBox="0 0 30 30" fill="none" xmlns="http://www.w3.org/2000/svg">
<path d="M22.9889 8.99023C22.7899 8.99029 22.5955 9.04967 22.4305 9.16078C22.2655 9.27189 22.1374 9.42969 22.0625 9.61401C21.9877 9.79832 21.9695 10.0008 22.0103 10.1955C22.0511 10.3902 22.149 10.5683 22.2916 10.707L25.5846 14H1.99862C1.86611 13.9981 1.73454 14.0226 1.61157 14.072C1.48861 14.1214 1.37669 14.1948 1.28232 14.2878C1.18795 14.3809 1.11301 14.4918 1.06186 14.614C1.01071 14.7363 0.984375 14.8675 0.984375 15C0.984375 15.1325 1.01071 15.2637 1.06186 15.386C1.11301 15.5082 1.18795 15.6191 1.28232 15.7122C1.37669 15.8052 1.48861 15.8786 1.61157 15.928C1.73454 15.9774 1.86611 16.0019 1.99862 16H25.5846L22.2916 19.293C22.1956 19.3851 22.119 19.4955 22.0662 19.6176C22.0134 19.7397 21.9855 19.8712 21.9842 20.0042C21.9828 20.1373 22.008 20.2692 22.0583 20.3924C22.1086 20.5156 22.183 20.6275 22.277 20.7216C22.3711 20.8156 22.483 20.89 22.6062 20.9403C22.7294 20.9906 22.8614 21.0158 22.9944 21.0144C23.1274 21.0131 23.2589 20.9852 23.381 20.9324C23.5031 20.8796 23.6135 20.803 23.7056 20.707L28.6178 15.7949C28.7399 15.7019 28.8389 15.5819 28.9072 15.4444C28.9756 15.3069 29.0113 15.1555 29.0117 15.0019C29.012 14.8484 28.9771 14.6968 28.9094 14.559C28.8418 14.4211 28.7433 14.3007 28.6217 14.207C28.6197 14.2057 28.6178 14.2044 28.6158 14.2031L23.7056 9.29297C23.6125 9.19717 23.501 9.12103 23.3779 9.06903C23.2548 9.01704 23.1225 8.99024 22.9889 8.99023Z" fill="#0050A2"/>
</svg>
