<svg width="30" height="30" viewBox="0 0 30 30" fill="none" xmlns="http://www.w3.org/2000/svg">
<path d="M7.01115 8.99023C7.21008 8.99029 7.40448 9.04967 7.56949 9.16078C7.7345 9.27189 7.86262 9.42969 7.93748 9.61401C8.01234 9.79832 8.03053 10.0008 7.98972 10.1955C7.94892 10.3902 7.85098 10.5683 7.70841 10.707L4.41545 14H28.0014C28.1339 13.9981 28.2655 14.0226 28.3884 14.072C28.5114 14.1214 28.6233 14.1948 28.7177 14.2878C28.8121 14.3809 28.887 14.4918 28.9381 14.614C28.9893 14.7363 29.0156 14.8675 29.0156 15C29.0156 15.1325 28.9893 15.2637 28.9381 15.386C28.887 15.5082 28.8121 15.6191 28.7177 15.7122C28.6233 15.8052 28.5114 15.8786 28.3884 15.928C28.2655 15.9774 28.1339 16.0019 28.0014 16H4.41545L7.70841 19.293C7.80439 19.3851 7.88101 19.4955 7.9338 19.6176C7.98658 19.7397 8.01447 19.8712 8.01583 20.0042C8.01718 20.1373 7.99197 20.2692 7.94168 20.3924C7.89139 20.5156 7.81703 20.6275 7.72295 20.7216C7.62887 20.8156 7.51697 20.89 7.39379 20.9403C7.27061 20.9906 7.13864 21.0158 7.0056 21.0144C6.87256 21.0131 6.74112 20.9852 6.61899 20.9324C6.49686 20.8796 6.3865 20.803 6.29435 20.707L1.38224 15.7949C1.26012 15.7019 1.16106 15.5819 1.09275 15.4444C1.02445 15.3069 0.988718 15.1555 0.98834 15.0019C0.987963 14.8484 1.02295 14.6968 1.09058 14.559C1.15821 14.4211 1.25667 14.3007 1.37834 14.207C1.38029 14.2057 1.38224 14.2044 1.3842 14.2031L6.29435 9.29297C6.38754 9.19717 6.49899 9.12103 6.6221 9.06903C6.74522 9.01704 6.8775 8.99024 7.01115 8.99023Z" fill="#0050A2"/>
</svg>
