<svg width="18" height="18" viewBox="0 0 18 18" fill="none" xmlns="http://www.w3.org/2000/svg">
<path d="M5.38746 0.333496C2.6004 0.333496 0.333313 2.60268 0.333313 5.39046L0.333313 12.6127C0.333313 15.3997 2.6025 17.6668 5.39028 17.6668H12.6125C15.3996 17.6668 17.6666 15.3976 17.6666 12.6099V5.38764C17.6666 2.60059 15.3975 0.333496 12.6097 0.333496L5.38746 0.333496ZM14.0555 3.22238C14.4542 3.22238 14.7778 3.54594 14.7778 3.94461C14.7778 4.34327 14.4542 4.66683 14.0555 4.66683C13.6569 4.66683 13.3333 4.34327 13.3333 3.94461C13.3333 3.54594 13.6569 3.22238 14.0555 3.22238ZM8.99998 4.66683C11.3898 4.66683 13.3333 6.61033 13.3333 9.00016C13.3333 11.39 11.3898 13.3335 8.99998 13.3335C6.61015 13.3335 4.66665 11.39 4.66665 9.00016C4.66665 6.61033 6.61015 4.66683 8.99998 4.66683ZM8.99998 6.11127C8.2338 6.11127 7.499 6.41564 6.95723 6.95741C6.41545 7.49918 6.11109 8.23398 6.11109 9.00016C6.11109 9.76634 6.41545 10.5011 6.95723 11.0429C7.499 11.5847 8.2338 11.8891 8.99998 11.8891C9.76616 11.8891 10.501 11.5847 11.0427 11.0429C11.5845 10.5011 11.8889 9.76634 11.8889 9.00016C11.8889 8.23398 11.5845 7.49918 11.0427 6.95741C10.501 6.41564 9.76616 6.11127 8.99998 6.11127Z" fill="#0050A2"/>
</svg>
