<svg width="18" height="18" viewBox="0 0 18 18" fill="none" xmlns="http://www.w3.org/2000/svg">
<path d="M8.99998 0.333496C4.21381 0.333496 0.333313 4.214 0.333313 9.00016C0.333313 13.345 3.5342 16.9331 7.70431 17.5599L7.70431 11.2968H5.56003V9.01894H7.70431V7.503C7.70431 4.99327 8.92703 3.89188 11.0128 3.89188C12.0116 3.89188 12.5403 3.96627 12.7902 3.9995V5.98777H11.3674C10.482 5.98777 10.1729 6.82772 10.1729 7.77383V9.01894H12.7678L12.4161 11.2968H10.1729V17.578C14.4029 17.0046 17.6666 13.3877 17.6666 9.00016C17.6666 4.214 13.7861 0.333496 8.99998 0.333496Z" fill="#0050A2"/>
</svg>
