<svg width="18" height="18" viewBox="0 0 18 18" fill="none" xmlns="http://www.w3.org/2000/svg">
<path d="M8.99998 0.333496C4.21381 0.333496 0.333313 4.214 0.333313 9.00016C0.333313 13.7863 4.21381 17.6668 8.99998 17.6668C13.7861 17.6668 17.6666 13.7863 17.6666 9.00016C17.6666 4.214 13.7861 0.333496 8.99998 0.333496ZM13.594 11.8652L12.2449 11.884C12.2449 11.884 11.9539 11.9411 11.5733 11.6782C11.0684 11.3315 10.5925 10.4294 10.2213 10.5464C9.84498 10.6663 9.85653 11.4781 9.85653 11.4781C9.85653 11.4781 9.85942 11.6211 9.77348 11.7143C9.68031 11.8147 9.49759 11.8046 9.49759 11.8046H8.89309C8.89309 11.8046 7.55987 11.9151 6.38481 10.6902C5.10503 9.35477 3.97404 6.71938 3.97404 6.71938C3.97404 6.71938 3.90759 6.55327 3.97837 6.46805C4.05853 6.37416 4.27448 6.37127 4.27448 6.37127L5.71892 6.36405C5.71892 6.36405 5.8547 6.38788 5.95292 6.46011C6.03309 6.51933 6.07859 6.63055 6.07859 6.63055C6.07859 6.63055 6.31187 7.22205 6.6217 7.75794C7.22548 8.80227 7.5057 9.03122 7.71081 8.91927C8.00981 8.75605 7.92026 7.44305 7.92026 7.44305C7.92026 7.44305 7.92603 6.96638 7.77003 6.75405C7.6487 6.58866 7.42048 6.53955 7.32081 6.52727C7.2392 6.51644 7.37209 6.32722 7.54542 6.242C7.80542 6.11488 8.26476 6.10766 8.80715 6.11272C9.22965 6.11705 9.3517 6.14305 9.51637 6.1835C10.0147 6.30411 9.8457 6.76922 9.8457 7.88505C9.8457 8.24255 9.78142 8.74522 10.0385 8.91061C10.1498 8.98211 10.4206 8.92144 11.0959 7.77022C11.4173 7.22422 11.6578 6.58288 11.6578 6.58288C11.6578 6.58288 11.7105 6.46877 11.7921 6.41966C11.8759 6.36911 11.9885 6.385 11.9885 6.385L13.5088 6.37561C13.5088 6.37561 13.9653 6.32072 14.0396 6.528C14.1176 6.74466 13.8692 7.25094 13.2481 8.07933C12.2283 9.44 12.1149 9.31361 12.9621 10.1008C13.771 10.8527 13.9378 11.2181 13.966 11.2643C14.3004 11.8212 13.594 11.8652 13.594 11.8652Z" fill="#0050A2"/>
</svg>
