<svg width="50" height="50" viewBox="0 0 50 50" fill="none" xmlns="http://www.w3.org/2000/svg">
<path d="M21.4372 1.00584C20.0814 1.04634 18.7714 1.75246 18.0251 2.98631L17.7614 3.42381C17.3849 4.04549 16.7214 4.42838 15.9958 4.44334H15.9938L15.4821 4.45506C13.2863 4.5008 11.4975 6.28827 11.4528 8.48436L11.4411 8.99608C11.4262 9.72168 11.0421 10.3865 10.4216 10.7617L9.98408 11.0273C8.10516 12.1647 7.4491 14.6083 8.50752 16.5332H8.50947L8.75557 16.9824C9.10572 17.6181 9.10572 18.3858 8.75557 19.0215L8.50947 19.4687C7.45123 21.3933 8.10589 23.8373 9.98604 24.9746L10.4235 25.2383C11.0452 25.6148 11.4281 26.2783 11.4431 27.0039V27.0058L11.4548 27.5176C11.4918 29.2938 12.6761 30.7864 14.2868 31.3223L9.09151 42.5801C9.02101 42.7325 8.99003 42.9002 9.00143 43.0678C9.01283 43.2353 9.06623 43.3973 9.15672 43.5388C9.24721 43.6802 9.37186 43.7966 9.51919 43.8773C9.66652 43.9579 9.83177 44.0001 9.99971 44H16.5192L20.2185 48.625C20.3261 48.7594 20.4666 48.8638 20.6263 48.928C20.7861 48.9922 20.9597 49.0141 21.1305 48.9915C21.3012 48.9689 21.4631 48.9026 21.6007 48.7991C21.7383 48.6955 21.8468 48.5582 21.9157 48.4004L25.031 41.2812L28.1462 48.4004C28.2151 48.5582 28.3236 48.6955 28.4612 48.7991C28.5988 48.9026 28.7608 48.9689 28.9315 48.9915C29.1022 49.0141 29.2758 48.9922 29.4356 48.928C29.5954 48.8638 29.7359 48.7594 29.8435 48.625L33.5427 44H40.0622C40.2301 44.0001 40.3954 43.9579 40.5427 43.8773C40.6901 43.7966 40.8147 43.6802 40.9052 43.5388C40.9957 43.3973 41.0491 43.2353 41.0605 43.0678C41.0719 42.9002 41.0409 42.7325 40.9704 42.5801L35.7673 31.3047C37.3509 30.7537 38.51 29.2744 38.5466 27.5176V27.5156L38.5583 27.0058V27.0039C38.5733 26.2783 38.9573 25.6134 39.5778 25.2383L40.0173 24.9726C41.8963 23.8353 42.5503 21.3936 41.4919 19.4687L41.4899 19.4668L41.2399 19.0156C40.8919 18.3807 40.8924 17.6149 41.2419 16.9805L41.4899 16.5332V16.5312C42.5477 14.6075 41.8936 12.1653 40.0153 11.0273L40.0134 11.0254L39.5759 10.7617C38.9542 10.3853 38.5713 9.72167 38.5563 8.99608V8.99413L38.5446 8.48436V8.48241C38.4989 6.28656 36.7114 4.49779 34.5153 4.45311L34.0036 4.44139C33.278 4.42643 32.6131 4.04237 32.238 3.42186L31.9724 2.98436C30.8351 1.10421 28.3911 0.449549 26.4665 1.5078V1.50975L26.0173 1.75584C25.3816 2.10599 24.6139 2.10599 23.9782 1.75584L23.531 1.50975C23.0498 1.24519 22.5367 1.08743 22.0192 1.02928C21.8252 1.00748 21.6309 1.00006 21.4372 1.00584ZM21.3864 2.99999C21.7819 2.97112 22.1918 3.0548 22.5681 3.2617L23.0134 3.5078C24.2477 4.18765 25.7498 4.18765 26.9841 3.5078L27.4313 3.25975V3.2617C28.4348 2.70995 29.6687 3.03967 30.2614 4.01952L30.5271 4.45702C31.2557 5.66123 32.5535 6.41171 33.9606 6.44139L34.4743 6.45311C35.6196 6.47641 36.5233 7.37817 36.5466 8.52342V8.52538L36.5563 9.0371C36.5854 10.4455 37.3364 11.7432 38.5407 12.4726L38.9782 12.7383C39.9575 13.3306 40.2883 14.5633 39.738 15.5664L39.4899 16.0156C38.8101 17.2499 38.8101 18.7501 39.4899 19.9844L39.4919 19.9863V19.9883L39.7399 20.4316C40.2915 21.4348 39.9592 22.6691 38.9802 23.2617L38.5427 23.5273C37.3372 24.2562 36.5873 25.5545 36.5583 26.9629L36.5485 27.4746V27.4765C36.5252 28.6218 35.6215 29.5236 34.4763 29.5469L33.9626 29.5586C32.5549 29.5883 31.2581 30.3372 30.529 31.541V31.543L30.2634 31.9805C29.6707 32.9603 28.4367 33.29 27.4333 32.7383V32.7402L26.986 32.4922C25.7517 31.8123 24.2496 31.8123 23.0153 32.4922L22.5681 32.7402V32.7383C21.5649 33.2898 20.3306 32.9595 19.738 31.9805L19.4724 31.543C18.7437 30.3387 17.4459 29.5883 16.0388 29.5586H16.0368L15.5251 29.5469C14.3798 29.5236 13.4761 28.6218 13.4528 27.4765V27.4746L13.4431 26.9629C13.414 25.5545 12.663 24.2568 11.4587 23.5273L11.0212 23.2617C10.0414 22.6689 9.70968 21.4351 10.2614 20.4316L10.5075 19.9863V19.9844C11.1864 18.7504 11.1871 17.2493 10.5075 16.0156L10.2595 15.5683H10.2614C9.70984 14.5652 10.0402 13.3309 11.0192 12.7383L11.4567 12.4726C12.661 11.744 13.4114 10.4462 13.4411 9.03905V9.0371L13.4528 8.52538C13.4761 7.38013 14.3779 6.47641 15.5231 6.45311H15.5251L16.0368 6.44334C17.4452 6.41431 18.7429 5.66329 19.4724 4.45897L19.738 4.02147C20.0343 3.53155 20.4896 3.20246 20.9978 3.06639C21.1248 3.03238 21.2546 3.00961 21.3864 2.99999ZM33.7009 31.6035L38.4978 42H33.0622C32.9122 41.9999 32.7641 42.0336 32.6289 42.0985C32.4936 42.1634 32.3747 42.2579 32.281 42.375L29.3142 46.082L26.1228 38.7832L27.8063 34.9355C29.4135 35.1866 31.0892 34.4788 31.9743 33.0156L32.2399 32.5781C32.5623 32.0459 33.099 31.7047 33.7009 31.6035ZM16.3571 31.6113C16.9362 31.725 17.4503 32.0635 17.7614 32.5781L18.0271 33.0156C19.1644 34.8946 21.608 35.5506 23.5329 34.4922V34.4902L23.9821 34.2441C24.5923 33.908 25.3212 33.9037 25.9411 34.2129L20.7478 46.082L17.781 42.375C17.6872 42.2579 17.5683 42.1634 17.4331 42.0985C17.2978 42.0336 17.1497 41.9999 16.9997 42H11.5642L16.3571 31.6113Z" fill="#0050A2"/>
</svg>
