<svg width="50" height="50" viewBox="0 0 50 50" fill="none" xmlns="http://www.w3.org/2000/svg">
<path d="M7 4C4.243 4 2 6.243 2 9V33C2 35.757 4.243 38 7 38H11.1406C11.4796 40.895 10.6253 42.8586 8.48633 44.1426C8.10133 44.3736 7.91711 44.8346 8.03711 45.2676C8.15611 45.7006 8.55 46 9 46C11.56 46 17.7076 45.205 20.6836 38H26.1309C26.0549 37.484 26 36.9564 26 36.4004C26 36.2654 26.0145 36.133 26.0215 36H20C19.581 36 19.2055 36.2613 19.0605 36.6543C17.4195 41.1303 14.4189 42.9098 11.9609 43.5938C13.1419 41.8447 13.4854 39.5783 12.9844 36.8203C12.8974 36.3453 12.483 36 12 36H7C5.346 36 4 34.654 4 33V9C4 7.346 5.346 6 7 6H43C44.654 6 46 7.346 46 9V28.3711C46.712 28.5881 47.381 28.9031 48 29.2871V9C48 6.243 45.757 4 43 4H7ZM34.5 30C30.9 30 28 32.9004 28 36.4004C28 41.9004 32.9992 45.2008 36.1992 47.3008C37.0992 47.9008 37.8008 48.3008 38.3008 48.8008L38.9004 49.3008L39.5 48.8008C40 48.4008 40.7996 47.9008 41.5996 47.3008C44.9996 45.1008 50 41.9004 50 36.4004C50 32.9004 47.1 30 43.5 30C41.8 30 40.2 30.7008 39 31.8008C37.8 30.7008 36.2 30 34.5 30ZM34.5 32C36 32 37.2992 32.7 38.1992 34L39 35.1992L39.8008 34C40.6008 32.8 42 32 43.5 32C46 32 48 34.0004 48 36.4004C48 40.8004 43.7992 43.5996 40.6992 45.5996C39.9992 45.9996 39.5 46.3992 39 46.6992C38.5 46.2992 38.0008 45.9996 37.3008 45.5996C34.2008 43.5996 30 40.8004 30 36.4004C30 34.0004 32 32 34.5 32Z" fill="#0050A2"/>
</svg>
