<svg width="50" height="50" viewBox="0 0 50 50" fill="none" xmlns="http://www.w3.org/2000/svg">
<path d="M12 0C10.9062 0 10 0.90625 10 2V4H4C3.59375 4 3.14844 4.0625 2.72266 4.35938C2.29688 4.65625 2 5.24609 2 5.79297V46.043C2 46.543 2.17188 47.0547 2.53125 47.4258C2.88672 47.8008 3.41016 48 3.91797 48H46.082C46.5898 48 47.1133 47.8008 47.4688 47.4258C47.8281 47.0547 48 46.543 48 46.043V5.79297C48 5.24609 47.7031 4.65625 47.2773 4.35938C46.8516 4.0625 46.4062 4 46 4H40V2C40 0.90625 39.0938 0 38 0H36C34.9062 0 34 0.90625 34 2V4H16V2C16 0.90625 15.0938 0 14 0H12ZM12 2H14V8H12V2ZM36 2H38V8H36V2ZM4 6H10V8C10 9.09375 10.9062 10 12 10H14C15.0938 10 16 9.09375 16 8V6H34V8C34 9.09375 34.9062 10 36 10H38C39.0938 10 40 9.09375 40 8V6H46V13H4V6ZM4 15H46V46H4V15ZM22.1172 23.4258L20.8281 30.3203H22.7891C22.9492 29.875 23.2109 29.5703 23.5742 29.4102C23.9336 29.25 24.3242 29.168 24.7344 29.168C25.125 29.168 25.4648 29.2422 25.7617 29.3867C26.0508 29.5273 26.2891 29.7227 26.4727 29.9609C26.6602 30.1992 26.793 30.4805 26.8867 30.7969C26.9805 31.1133 27.0273 31.4492 27.0273 31.7969C27.0273 32.1797 26.9883 32.5391 26.9141 32.875C26.8398 33.2148 26.7109 33.5039 26.5352 33.7578C26.3594 34.0117 26.125 34.207 25.8398 34.3516C25.5508 34.4961 25.1992 34.5664 24.7852 34.5664C24.1445 34.5664 23.6289 34.3867 23.2383 34.0195C22.8477 33.6523 22.625 33.1289 22.5664 32.4414H20.6055C20.625 33.0781 20.75 33.6367 20.9727 34.1094C21.1953 34.582 21.4961 34.9844 21.875 35.3086C22.2578 35.6289 22.6914 35.875 23.1914 36.0352C23.6914 36.1953 24.2344 36.2773 24.8203 36.2773C25.5547 36.2773 26.1875 36.1367 26.7148 35.8555C27.2422 35.5742 27.6758 35.2148 28.0156 34.7773C28.3555 34.3359 28.6016 33.8516 28.7539 33.3164C28.9102 32.7812 28.9844 32.2656 28.9844 31.7617C28.9844 31.1602 28.9023 30.6016 28.7383 30.0859C28.5703 29.5703 28.3281 29.1211 28.0039 28.7461C27.6836 28.3672 27.2891 28.0742 26.8164 27.8633C26.3477 27.6523 25.8125 27.5469 25.2188 27.5469C24.8164 27.5469 24.4102 27.6289 24 27.793C23.5938 27.9531 23.2578 28.1914 22.9961 28.5L22.9609 28.4688L23.5781 25.2617H28.3477V23.4258H22.1172Z" fill="#0050A2"/>
</svg>
