<svg width="50" height="50" viewBox="0 0 50 50" fill="none" xmlns="http://www.w3.org/2000/svg">
<path d="M19.9629 3.00001C19.7042 3.00964 19.4593 3.11923 19.2797 3.30573C19.1001 3.49223 18.9998 3.74111 19 4.00001V13H6C4.35503 13 3 14.355 3 16V46C3.00001 46.1705 3.04358 46.3381 3.12659 46.487C3.2096 46.6359 3.32929 46.7611 3.47429 46.8507C3.61929 46.9403 3.78479 46.9914 3.95508 46.9991C4.12537 47.0067 4.29479 46.9708 4.44727 46.8945L6 46.1172L7.55273 46.8945C7.69161 46.964 7.84474 47.0001 8 47.0001C8.15526 47.0001 8.30839 46.964 8.44727 46.8945L10 46.1172L11.5527 46.8945C11.6916 46.964 11.8447 47.0001 12 47.0001C12.1553 47.0001 12.3084 46.964 12.4473 46.8945L14 46.1172L15.5527 46.8945C15.6916 46.964 15.8447 47.0001 16 47.0001C16.1553 47.0001 16.3084 46.964 16.4473 46.8945L18 46.1172L19.5527 46.8945C19.6916 46.964 19.8447 47.0001 20 47.0001C20.1553 47.0001 20.3084 46.964 20.4473 46.8945L22 46.1172L23.5527 46.8945C23.7052 46.9708 23.8746 47.0067 24.0449 46.9991C24.2152 46.9914 24.3807 46.9403 24.5257 46.8507C24.6707 46.7611 24.7904 46.6359 24.8734 46.487C24.9564 46.3381 25 46.1705 25 46V41H39.4492H47V34.2598V24.7402V18H39.4492H29V16C29 14.6395 27.9837 13.6659 26.7324 13.3047C26.6376 13.2066 26.5237 13.129 26.3977 13.0766C26.2718 13.0242 26.1364 12.9982 26 13H21V5.6172L21.5527 5.89454C21.6916 5.96398 21.8447 6.00013 22 6.00013C22.1553 6.00013 22.3084 5.96398 22.4473 5.89454L24 5.1172L25.5527 5.89454C25.6916 5.96398 25.8447 6.00013 26 6.00013C26.1553 6.00013 26.3084 5.96398 26.4473 5.89454L28 5.1172L29.5527 5.89454C29.6916 5.96398 29.8447 6.00013 30 6.00013C30.1553 6.00013 30.3084 5.96398 30.4473 5.89454L32 5.1172L33.5527 5.89454C33.6916 5.96398 33.8447 6.00013 34 6.00013C34.1553 6.00013 34.3084 5.96398 34.4473 5.89454L36 5.1172L37.5527 5.89454C37.6916 5.96398 37.8447 6.00013 38 6.00013C38.1553 6.00013 38.3084 5.96398 38.4473 5.89454L39 5.6172V16H41V4.00001C41 3.82955 40.9564 3.66192 40.8734 3.51303C40.7904 3.36414 40.6707 3.23895 40.5257 3.14932C40.3807 3.0597 40.2152 3.00863 40.0449 3.00095C39.8746 2.99328 39.7052 3.02926 39.5527 3.10548L38 3.88282L36.4473 3.10548C36.3084 3.03604 36.1553 2.99989 36 2.99989C35.8447 2.99989 35.6916 3.03604 35.5527 3.10548L34 3.88282L32.4473 3.10548C32.3084 3.03604 32.1553 2.99989 32 2.99989C31.8447 2.99989 31.6916 3.03604 31.5527 3.10548L30 3.88282L28.4473 3.10548C28.3084 3.03604 28.1553 2.99989 28 2.99989C27.8447 2.99989 27.6916 3.03604 27.5527 3.10548L26 3.88282L24.4473 3.10548C24.3084 3.03604 24.1553 2.99989 24 2.99989C23.8447 2.99989 23.6916 3.03604 23.5527 3.10548L22 3.88282L20.4473 3.10548C20.2972 3.03023 20.1306 2.99396 19.9629 3.00001ZM24 9.00001C23.8675 8.99814 23.7359 9.02262 23.613 9.07203C23.49 9.12144 23.3781 9.1948 23.2837 9.28785C23.1893 9.38089 23.1144 9.49177 23.0632 9.61402C23.0121 9.73628 22.9858 9.86748 22.9858 10C22.9858 10.1325 23.0121 10.2637 23.0632 10.386C23.1144 10.5083 23.1893 10.6191 23.2837 10.7122C23.3781 10.8052 23.49 10.8786 23.613 10.928C23.7359 10.9774 23.8675 11.0019 24 11H29C29.1325 11.0019 29.2641 10.9774 29.387 10.928C29.51 10.8786 29.6219 10.8052 29.7163 10.7122C29.8107 10.6191 29.8856 10.5083 29.9368 10.386C29.9879 10.2637 30.0142 10.1325 30.0142 10C30.0142 9.86748 29.9879 9.73628 29.9368 9.61402C29.8856 9.49177 29.8107 9.38089 29.7163 9.28785C29.6219 9.1948 29.51 9.12144 29.387 9.07203C29.2641 9.02262 29.1325 8.99814 29 9.00001H24ZM34 9.00001C33.8675 8.99814 33.7359 9.02262 33.613 9.07203C33.49 9.12144 33.3781 9.1948 33.2837 9.28785C33.1893 9.38089 33.1144 9.49177 33.0632 9.61402C33.0121 9.73628 32.9858 9.86748 32.9858 10C32.9858 10.1325 33.0121 10.2637 33.0632 10.386C33.1144 10.5083 33.1893 10.6191 33.2837 10.7122C33.3781 10.8052 33.49 10.8786 33.613 10.928C33.7359 10.9774 33.8675 11.0019 34 11H36C36.1325 11.0019 36.2641 10.9774 36.387 10.928C36.51 10.8786 36.6219 10.8052 36.7163 10.7122C36.8107 10.6191 36.8856 10.5083 36.9368 10.386C36.9879 10.2637 37.0142 10.1325 37.0142 10C37.0142 9.86748 36.9879 9.73628 36.9368 9.61402C36.8856 9.49177 36.8107 9.38089 36.7163 9.28785C36.6219 9.1948 36.51 9.12144 36.387 9.07203C36.2641 9.02262 36.1325 8.99814 36 9.00001H34ZM34 13C33.8675 12.9981 33.7359 13.0226 33.613 13.072C33.49 13.1214 33.3781 13.1948 33.2837 13.2878C33.1893 13.3809 33.1144 13.4918 33.0632 13.614C33.0121 13.7363 32.9858 13.8675 32.9858 14C32.9858 14.1325 33.0121 14.2637 33.0632 14.386C33.1144 14.5083 33.1893 14.6191 33.2837 14.7122C33.3781 14.8052 33.49 14.8786 33.613 14.928C33.7359 14.9774 33.8675 15.0019 34 15H36C36.1325 15.0019 36.2641 14.9774 36.387 14.928C36.51 14.8786 36.6219 14.8052 36.7163 14.7122C36.8107 14.6191 36.8856 14.5083 36.9368 14.386C36.9879 14.2637 37.0142 14.1325 37.0142 14C37.0142 13.8675 36.9879 13.7363 36.9368 13.614C36.8856 13.4918 36.8107 13.3809 36.7163 13.2878C36.6219 13.1948 36.51 13.1214 36.387 13.072C36.2641 13.0226 36.1325 12.9981 36 13H34ZM6 15H23.416C23.279 15.342 23 15.6117 23 16V23.6563C22.9635 23.8091 22.9635 23.9683 23 24.1211V34.8789C22.9632 35.0323 22.9632 35.1923 23 35.3457V44.3828L22.4473 44.1055C22.3084 44.036 22.1553 43.9999 22 43.9999C21.8447 43.9999 21.6916 44.036 21.5527 44.1055L20 44.8828L18.4473 44.1055C18.3084 44.036 18.1553 43.9999 18 43.9999C17.8447 43.9999 17.6916 44.036 17.5527 44.1055L16 44.8828L14.4473 44.1055C14.3084 44.036 14.1553 43.9999 14 43.9999C13.8447 43.9999 13.6916 44.036 13.5527 44.1055L12 44.8828L10.4473 44.1055C10.3084 44.036 10.1553 43.9999 10 43.9999C9.84474 43.9999 9.69161 44.036 9.55273 44.1055L8 44.8828L6.44727 44.1055C6.30839 44.036 6.15526 43.9999 6 43.9999C5.84474 43.9999 5.69161 44.036 5.55273 44.1055L5 44.3828V16C5 15.435 5.43497 15 6 15ZM26 15C26.565 15 27 15.435 27 16V18H25V16C25 15.435 25.435 15 26 15ZM25 20H39.4492C40.3328 20 40.5576 20.3077 40.8887 20.877C41.0542 21.1616 41.1987 21.5078 41.3516 21.8613C41.5045 22.2149 41.631 22.5842 42.0137 22.9668C42.3942 23.3473 42.7725 23.4805 43.1445 23.6309C43.5166 23.7812 43.8894 23.9131 44.2031 24.0547C44.5168 24.1963 44.7588 24.3519 44.873 24.4668C44.9873 24.5817 45 24.5992 45 24.7402V34.2598C45 34.4008 44.9873 34.4183 44.873 34.5332C44.7588 34.6481 44.5168 34.8037 44.2031 34.9453C43.8894 35.0869 43.5166 35.2188 43.1445 35.3691C42.7725 35.5195 42.3942 35.6527 42.0137 36.0332C41.631 36.4159 41.5045 36.7851 41.3516 37.1387C41.1987 37.4922 41.0542 37.8384 40.8887 38.1231C40.5576 38.6923 40.3328 39 39.4492 39H25V36.6777C25.6351 36.8809 26.305 37 27 37C30.8994 37 34 33.5888 34 29.5C34 25.4112 30.8994 22 27 22C26.305 22 25.6351 22.1192 25 22.3223V20ZM42.6836 20H45V22.2227C44.5886 22.0388 44.1923 21.8985 43.8926 21.7774C43.586 21.6535 43.3862 21.5112 43.4277 21.5527C43.4704 21.5954 43.3246 21.3879 43.1855 21.0664C43.0602 20.7767 42.9015 20.3973 42.6836 20ZM8 22C7.86749 21.9981 7.73593 22.0226 7.61296 22.072C7.48999 22.1214 7.37807 22.1948 7.2837 22.2878C7.18933 22.3809 7.11439 22.4918 7.06324 22.614C7.0121 22.7363 6.98576 22.8675 6.98576 23C6.98576 23.1325 7.0121 23.2637 7.06324 23.386C7.11439 23.5083 7.18933 23.6191 7.2837 23.7122C7.37807 23.8052 7.48999 23.8786 7.61296 23.928C7.73593 23.9774 7.86749 24.0019 8 24H13C13.1325 24.0019 13.2641 23.9774 13.387 23.928C13.51 23.8786 13.6219 23.8052 13.7163 23.7122C13.8107 23.6191 13.8856 23.5083 13.9368 23.386C13.9879 23.2637 14.0142 23.1325 14.0142 23C14.0142 22.8675 13.9879 22.7363 13.9368 22.614C13.8856 22.4918 13.8107 22.3809 13.7163 22.2878C13.6219 22.1948 13.51 22.1214 13.387 22.072C13.2641 22.0226 13.1325 21.9981 13 22H8ZM18 22C17.8675 21.9981 17.7359 22.0226 17.613 22.072C17.49 22.1214 17.3781 22.1948 17.2837 22.2878C17.1893 22.3809 17.1144 22.4918 17.0632 22.614C17.0121 22.7363 16.9858 22.8675 16.9858 23C16.9858 23.1325 17.0121 23.2637 17.0632 23.386C17.1144 23.5083 17.1893 23.6191 17.2837 23.7122C17.3781 23.8052 17.49 23.8786 17.613 23.928C17.7359 23.9774 17.8675 24.0019 18 24H20C20.1325 24.0019 20.2641 23.9774 20.387 23.928C20.51 23.8786 20.6219 23.8052 20.7163 23.7122C20.8107 23.6191 20.8856 23.5083 20.9368 23.386C20.9879 23.2637 21.0142 23.1325 21.0142 23C21.0142 22.8675 20.9879 22.7363 20.9368 22.614C20.8856 22.4918 20.8107 22.3809 20.7163 22.2878C20.6219 22.1948 20.51 22.1214 20.387 22.072C20.2641 22.0226 20.1325 21.9981 20 22H18ZM27 24C29.7286 24 32 26.4088 32 29.5C32 32.5912 29.7286 35 27 35C26.2857 35 25.6146 34.832 25 34.5352V24.4649C25.6146 24.168 26.2857 24 27 24ZM8 26C7.86749 25.9981 7.73593 26.0226 7.61296 26.072C7.48999 26.1214 7.37807 26.1948 7.2837 26.2878C7.18933 26.3809 7.11439 26.4918 7.06324 26.614C7.0121 26.7363 6.98576 26.8675 6.98576 27C6.98576 27.1325 7.0121 27.2637 7.06324 27.386C7.11439 27.5083 7.18933 27.6191 7.2837 27.7122C7.37807 27.8052 7.48999 27.8786 7.61296 27.928C7.73593 27.9774 7.86749 28.0019 8 28H10C10.1325 28.0019 10.2641 27.9774 10.387 27.928C10.51 27.8786 10.6219 27.8052 10.7163 27.7122C10.8107 27.6191 10.8856 27.5083 10.9368 27.386C10.9879 27.2637 11.0142 27.1325 11.0142 27C11.0142 26.8675 10.9879 26.7363 10.9368 26.614C10.8856 26.4918 10.8107 26.3809 10.7163 26.2878C10.6219 26.1948 10.51 26.1214 10.387 26.072C10.2641 26.0226 10.1325 25.9981 10 26H8ZM18 26C17.8675 25.9981 17.7359 26.0226 17.613 26.072C17.49 26.1214 17.3781 26.1948 17.2837 26.2878C17.1893 26.3809 17.1144 26.4918 17.0632 26.614C17.0121 26.7363 16.9858 26.8675 16.9858 27C16.9858 27.1325 17.0121 27.2637 17.0632 27.386C17.1144 27.5083 17.1893 27.6191 17.2837 27.7122C17.3781 27.8052 17.49 27.8786 17.613 27.928C17.7359 27.9774 17.8675 28.0019 18 28H20C20.1325 28.0019 20.2641 27.9774 20.387 27.928C20.51 27.8786 20.6219 27.8052 20.7163 27.7122C20.8107 27.6191 20.8856 27.5083 20.9368 27.386C20.9879 27.2637 21.0142 27.1325 21.0142 27C21.0142 26.8675 20.9879 26.7363 20.9368 26.614C20.8856 26.4918 20.8107 26.3809 20.7163 26.2878C20.6219 26.1948 20.51 26.1214 20.387 26.072C20.2641 26.0226 20.1325 25.9981 20 26H18ZM39.5 27C38.75 27 38.0602 27.3173 37.627 27.8047C37.1937 28.2921 37 28.9028 37 29.5C37 30.0972 37.1937 30.7079 37.627 31.1953C38.0602 31.6828 38.75 32 39.5 32C40.25 32 40.9398 31.6828 41.373 31.1953C41.8063 30.7079 42 30.0972 42 29.5C42 28.9028 41.8063 28.2921 41.373 27.8047C40.9398 27.3173 40.25 27 39.5 27ZM39.5 29C39.75 29 39.8102 29.0578 39.877 29.1328C39.9437 29.2079 40 29.3472 40 29.5C40 29.6528 39.9437 29.7921 39.877 29.8672C39.8102 29.9423 39.75 30 39.5 30C39.25 30 39.1898 29.9423 39.123 29.8672C39.0563 29.7921 39 29.6528 39 29.5C39 29.3472 39.0563 29.2079 39.123 29.1328C39.1898 29.0578 39.25 29 39.5 29ZM8 30C7.86749 29.9981 7.73593 30.0226 7.61296 30.072C7.48999 30.1214 7.37807 30.1948 7.2837 30.2878C7.18933 30.3809 7.11439 30.4918 7.06324 30.614C7.0121 30.7363 6.98576 30.8675 6.98576 31C6.98576 31.1325 7.0121 31.2637 7.06324 31.386C7.11439 31.5083 7.18933 31.6191 7.2837 31.7122C7.37807 31.8052 7.48999 31.8786 7.61296 31.928C7.73593 31.9774 7.86749 32.0019 8 32H13C13.1325 32.0019 13.2641 31.9774 13.387 31.928C13.51 31.8786 13.6219 31.8052 13.7163 31.7122C13.8107 31.6191 13.8856 31.5083 13.9368 31.386C13.9879 31.2637 14.0142 31.1325 14.0142 31C14.0142 30.8675 13.9879 30.7363 13.9368 30.614C13.8856 30.4918 13.8107 30.3809 13.7163 30.2878C13.6219 30.1948 13.51 30.1214 13.387 30.072C13.2641 30.0226 13.1325 29.9981 13 30H8ZM18 30C17.8675 29.9981 17.7359 30.0226 17.613 30.072C17.49 30.1214 17.3781 30.1948 17.2837 30.2878C17.1893 30.3809 17.1144 30.4918 17.0632 30.614C17.0121 30.7363 16.9858 30.8675 16.9858 31C16.9858 31.1325 17.0121 31.2637 17.0632 31.386C17.1144 31.5083 17.1893 31.6191 17.2837 31.7122C17.3781 31.8052 17.49 31.8786 17.613 31.928C17.7359 31.9774 17.8675 32.0019 18 32H20C20.1325 32.0019 20.2641 31.9774 20.387 31.928C20.51 31.8786 20.6219 31.8052 20.7163 31.7122C20.8107 31.6191 20.8856 31.5083 20.9368 31.386C20.9879 31.2637 21.0142 31.1325 21.0142 31C21.0142 30.8675 20.9879 30.7363 20.9368 30.614C20.8856 30.4918 20.8107 30.3809 20.7163 30.2878C20.6219 30.1948 20.51 30.1214 20.387 30.072C20.2641 30.0226 20.1325 29.9981 20 30H18ZM8 34C7.86749 33.9981 7.73593 34.0226 7.61296 34.072C7.48999 34.1214 7.37807 34.1948 7.2837 34.2879C7.18933 34.3809 7.11439 34.4918 7.06324 34.614C7.0121 34.7363 6.98576 34.8675 6.98576 35C6.98576 35.1325 7.0121 35.2637 7.06324 35.386C7.11439 35.5083 7.18933 35.6191 7.2837 35.7122C7.37807 35.8052 7.48999 35.8786 7.61296 35.928C7.73593 35.9774 7.86749 36.0019 8 36H11C11.1325 36.0019 11.2641 35.9774 11.387 35.928C11.51 35.8786 11.6219 35.8052 11.7163 35.7122C11.8107 35.6191 11.8856 35.5083 11.9368 35.386C11.9879 35.2637 12.0142 35.1325 12.0142 35C12.0142 34.8675 11.9879 34.7363 11.9368 34.614C11.8856 34.4918 11.8107 34.3809 11.7163 34.2879C11.6219 34.1948 11.51 34.1214 11.387 34.072C11.2641 34.0226 11.1325 33.9981 11 34H8ZM18 34C17.8675 33.9981 17.7359 34.0226 17.613 34.072C17.49 34.1214 17.3781 34.1948 17.2837 34.2879C17.1893 34.3809 17.1144 34.4918 17.0632 34.614C17.0121 34.7363 16.9858 34.8675 16.9858 35C16.9858 35.1325 17.0121 35.2637 17.0632 35.386C17.1144 35.5083 17.1893 35.6191 17.2837 35.7122C17.3781 35.8052 17.49 35.8786 17.613 35.928C17.7359 35.9774 17.8675 36.0019 18 36H20C20.1325 36.0019 20.2641 35.9774 20.387 35.928C20.51 35.8786 20.6219 35.8052 20.7163 35.7122C20.8107 35.6191 20.8856 35.5083 20.9368 35.386C20.9879 35.2637 21.0142 35.1325 21.0142 35C21.0142 34.8675 20.9879 34.7363 20.9368 34.614C20.8856 34.4918 20.8107 34.3809 20.7163 34.2879C20.6219 34.1948 20.51 34.1214 20.387 34.072C20.2641 34.0226 20.1325 33.9981 20 34H18ZM45 36.7774V39H42.6836C42.9015 38.6027 43.0602 38.2233 43.1855 37.9336C43.3246 37.6121 43.4704 37.4046 43.4277 37.4473C43.3862 37.4888 43.586 37.3465 43.8926 37.2227C44.1923 37.1015 44.5886 36.9613 45 36.7774Z" fill="#0050A2"/>
</svg>
