<svg width="50" height="50" viewBox="0 0 50 50" fill="none" xmlns="http://www.w3.org/2000/svg">
<path d="M25.0006 4C19.5006 4 15.0006 8.5 15.0006 14C15.0006 19.5 19.5006 24 25.0006 24C30.5006 24 35.0006 19.5 35.0006 14C35.0006 8.5 30.5006 4 25.0006 4ZM7.94786 4.99219C7.74028 5.00063 7.54047 5.07352 7.3762 5.20072C7.21194 5.32793 7.09136 5.50313 7.03123 5.702C6.9711 5.90087 6.97439 6.11352 7.04066 6.31043C7.10692 6.50734 7.23286 6.67873 7.40099 6.80078L11.401 9.80078C11.5061 9.87956 11.6258 9.93686 11.7531 9.96939C11.8804 10.0019 12.0129 10.0091 12.1429 9.9904C12.273 9.97174 12.3981 9.92763 12.5111 9.8606C12.6241 9.79358 12.7228 9.70494 12.8016 9.59977C12.8803 9.49459 12.9376 9.37493 12.9701 9.24761C13.0026 9.1203 13.0097 8.98784 12.991 8.85778C12.9723 8.72772 12.9282 8.60262 12.8611 8.48962C12.7941 8.37663 12.7054 8.27795 12.6002 8.19922L8.60021 5.19922C8.41387 5.05564 8.18289 4.98233 7.94786 4.99219ZM42.024 4.99219C41.799 4.98912 41.5795 5.06206 41.401 5.19922L37.401 8.19922C37.2958 8.27795 37.2071 8.37663 37.1401 8.48962C37.073 8.60262 37.0289 8.72772 37.0102 8.85778C36.9915 8.98784 36.9986 9.1203 37.0311 9.24761C37.0636 9.37493 37.1209 9.49459 37.1996 9.59977C37.2784 9.70494 37.3771 9.79358 37.4901 9.8606C37.6031 9.92763 37.7282 9.97174 37.8583 9.9904C37.9883 10.0091 38.1208 10.0019 38.2481 9.96939C38.3754 9.93686 38.4951 9.87956 38.6002 9.80078L42.6002 6.80078C42.77 6.67716 42.8966 6.50319 42.962 6.30357C43.0274 6.10394 43.0283 5.88879 42.9646 5.68864C42.9008 5.48848 42.7756 5.31349 42.6068 5.18848C42.438 5.06347 42.2341 4.99479 42.024 4.99219ZM25.0006 6C29.4006 6 33.0006 9.6 33.0006 14C33.0006 18.4 29.4006 22 25.0006 22C20.6006 22 17.0006 18.4 17.0006 14C17.0006 9.6 20.6006 6 25.0006 6ZM25.8014 10L22.0006 11.1992V12.5996L24.0006 12.0996V18H26.0006V10H25.8014ZM6.0006 13C5.86809 12.9981 5.73652 13.0226 5.61355 13.072C5.49059 13.1214 5.37867 13.1948 5.2843 13.2878C5.18993 13.3809 5.11499 13.4918 5.06384 13.614C5.01269 13.7363 4.98636 13.8675 4.98636 14C4.98636 14.1325 5.01269 14.2637 5.06384 14.386C5.11499 14.5082 5.18993 14.6191 5.2843 14.7122C5.37867 14.8052 5.49059 14.8786 5.61355 14.928C5.73652 14.9774 5.86809 15.0019 6.0006 15H11.0006C11.1331 15.0019 11.2647 14.9774 11.3876 14.928C11.5106 14.8786 11.6225 14.8052 11.7169 14.7122C11.8113 14.6191 11.8862 14.5082 11.9374 14.386C11.9885 14.2637 12.0148 14.1325 12.0148 14C12.0148 13.8675 11.9885 13.7363 11.9374 13.614C11.8862 13.4918 11.8113 13.3809 11.7169 13.2878C11.6225 13.1948 11.5106 13.1214 11.3876 13.072C11.2647 13.0226 11.1331 12.9981 11.0006 13H6.0006ZM39.0006 13C38.8681 12.9981 38.7365 13.0226 38.6136 13.072C38.4906 13.1214 38.3787 13.1948 38.2843 13.2878C38.1899 13.3809 38.115 13.4918 38.0638 13.614C38.0127 13.7363 37.9864 13.8675 37.9864 14C37.9864 14.1325 38.0127 14.2637 38.0638 14.386C38.115 14.5082 38.1899 14.6191 38.2843 14.7122C38.3787 14.8052 38.4906 14.8786 38.6136 14.928C38.7365 14.9774 38.8681 15.0019 39.0006 15H44.0006C44.1331 15.0019 44.2647 14.9774 44.3876 14.928C44.5106 14.8786 44.6225 14.8052 44.7169 14.7122C44.8113 14.6191 44.8862 14.5082 44.9374 14.386C44.9885 14.2637 45.0148 14.1325 45.0148 14C45.0148 13.8675 44.9885 13.7363 44.9374 13.614C44.8862 13.4918 44.8113 13.3809 44.7169 13.2878C44.6225 13.1948 44.5106 13.1214 44.3876 13.072C44.2647 13.0226 44.1331 12.9981 44.0006 13H39.0006ZM12.024 17.9922C11.799 17.9891 11.5795 18.0621 11.401 18.1992L7.40099 21.1992C7.18861 21.3582 7.0481 21.5951 7.01037 21.8577C6.97265 22.1204 7.04079 22.3872 7.19982 22.5996C7.35884 22.812 7.59572 22.9525 7.85835 22.9902C8.12097 23.028 8.38783 22.9598 8.60021 22.8008L12.6002 19.8008C12.77 19.6772 12.8966 19.5032 12.962 19.3036C13.0274 19.1039 13.0283 18.8888 12.9646 18.6886C12.9008 18.4885 12.7756 18.3135 12.6068 18.1885C12.438 18.0635 12.2341 17.9948 12.024 17.9922ZM37.9479 17.9922C37.7403 18.0006 37.5405 18.0735 37.3762 18.2007C37.2119 18.3279 37.0914 18.5031 37.0312 18.702C36.9711 18.9009 36.9744 19.1135 37.0407 19.3104C37.1069 19.5073 37.2329 19.6787 37.401 19.8008L41.401 22.8008C41.6134 22.9598 41.8802 23.028 42.1428 22.9902C42.4055 22.9525 42.6424 22.812 42.8014 22.5996C42.9604 22.3872 43.0286 22.1204 42.9908 21.8577C42.9531 21.5951 42.8126 21.3582 42.6002 21.1992L38.6002 18.1992C38.4139 18.0556 38.1829 17.9823 37.9479 17.9922ZM44.1588 25.9844C43.9767 25.9871 43.7951 26.0039 43.6139 26.0332C43.1306 26.1114 42.6552 26.2864 42.2174 26.5625L31.1178 33.4023C30.8616 33.2623 30.5474 33.1076 30.1334 32.9082C29.6577 32.6791 29.1601 32.4454 28.8795 32.3184C27.3688 31.6352 22.5525 29.6473 18.8971 28.043C17.3333 27.3567 15.662 27.006 13.9889 26.9902C12.3158 26.9745 10.6394 27.2942 9.0631 27.9512L2.61583 30.6367C2.49176 30.6852 2.37862 30.758 2.28307 30.8508C2.18752 30.9437 2.11148 31.0547 2.05941 31.1773C2.00734 31.2999 1.98029 31.4317 1.97985 31.5649C1.97942 31.6981 2.0056 31.8301 2.05687 31.953C2.10813 32.076 2.18345 32.1875 2.27839 32.2809C2.37333 32.3744 2.48598 32.4479 2.60974 32.4972C2.73349 32.5465 2.86585 32.5706 2.99905 32.5681C3.13224 32.5656 3.26358 32.5364 3.38536 32.4824L9.83263 29.7969C12.482 28.6928 15.4639 28.7215 18.0924 29.875C21.783 31.4947 26.678 33.5178 28.0553 34.1406C28.3026 34.2526 28.8022 34.4875 29.2662 34.7109C29.7302 34.9344 30.2179 35.1815 30.2584 35.2051C30.7046 35.4646 31.0006 35.9292 31.0006 36.4883C31.0006 37.3291 30.3414 37.9883 29.5006 37.9883C29.3814 37.9883 29.2684 37.9749 29.1608 37.9492C29.1601 37.9492 29.1595 37.9492 29.1588 37.9492C29.1336 37.9432 28.3424 37.721 27.3834 37.4395C26.4244 37.1579 25.2042 36.7963 24.0045 36.4395C21.6052 35.7258 19.2877 35.0312 19.2877 35.0312C19.0336 34.9551 18.7597 34.983 18.5262 35.1088C18.2927 35.2346 18.1187 35.4481 18.0426 35.7021C17.9664 35.9562 17.9943 36.2301 18.1202 36.4637C18.246 36.6972 18.4594 36.8711 18.7135 36.9473C18.7135 36.9473 21.0344 37.6411 23.4361 38.3555C24.637 38.7126 25.8577 39.0746 26.8209 39.3574C27.7832 39.64 28.3958 39.8234 28.6959 39.8945C28.9563 39.9568 29.2258 39.9883 29.5006 39.9883C31.4218 39.9883 33.0006 38.4095 33.0006 36.4883C33.0006 35.8962 32.846 35.3397 32.5826 34.8496L43.276 28.2598C43.2793 28.2578 43.2825 28.2559 43.2858 28.2539C44.1227 27.7261 45.1996 27.97 45.7272 28.8066C46.2396 29.6189 46.0254 30.6635 45.235 31.209C45.2224 31.2172 45.21 31.2256 45.1979 31.2344L29.4244 43.1855C28.3477 44.0019 26.9367 44.2214 25.6627 43.7695L14.0143 39.6406C11.3209 38.529 8.2385 38.9034 5.88927 40.627L2.40489 43.1836C2.29473 43.2596 2.20093 43.3569 2.12907 43.4698C2.0572 43.5827 2.00873 43.7089 1.98652 43.8409C1.96431 43.9729 1.96882 44.108 1.99978 44.2382C2.03073 44.3684 2.08751 44.491 2.16674 44.5989C2.24597 44.7068 2.34604 44.7976 2.46103 44.8661C2.57602 44.9346 2.70358 44.9793 2.83616 44.9976C2.96874 45.0158 3.10364 45.0073 3.23287 44.9725C3.3621 44.9377 3.48303 44.8773 3.58849 44.7949L7.07286 42.2402C8.86164 40.9278 11.1999 40.6439 13.2506 41.4902C13.2661 41.4965 13.2817 41.5023 13.2975 41.5078L24.9947 45.6543C26.9008 46.3304 29.0221 46.001 30.6334 44.7793L46.3697 32.8555C48.0253 31.7129 48.4921 29.4419 47.4186 27.7402C46.6938 26.5909 45.4337 25.9654 44.1588 25.9844Z" fill="#0050A2"/>
</svg>
