<svg width="50" height="50" viewBox="0 0 50 50" fill="none" xmlns="http://www.w3.org/2000/svg">
<path d="M4 5V7H45V39H19V41H46C46.565 41 47 41.435 47 42V43H19V45H48C48.2652 45 48.5195 44.8946 48.7071 44.7071C48.8946 44.5195 49 44.2652 49 44V42C49 40.7434 48.1067 39.8594 47 39.416V6C47 5.73479 46.8946 5.48045 46.7071 5.29292C46.5195 5.10539 46.2652 5.00003 46 5H4ZM9 11C5.14585 11 2 14.1459 2 18C2 21.8541 5.14585 25 9 25C12.8542 25 16 21.8541 16 18C16 14.1459 12.8542 11 9 11ZM20 11V13H21H31H32V11H31H21H20ZM35 11V13H36H41H42V11H41H36H35ZM9 13C11.7733 13 14 15.2267 14 18C14 20.7733 11.7733 23 9 23C6.22673 23 4 20.7733 4 18C4 15.2267 6.22673 13 9 13ZM20 16V18H21H41H42V16H41H21H20ZM28.3613 21.7422C28.1385 21.7384 27.9162 21.7563 27.6973 21.7949C26.8214 21.9492 26.0037 22.4387 25.4629 23.2227L21.6035 28.8145L17.9727 27.6035C16.7733 27.2034 15.5172 27 14.2539 27H7C3.69837 27 1 29.6984 1 33V45H3V33C3 30.7796 4.77963 29 7 29H14.2539C15.3026 29 16.3452 29.1682 17.3398 29.5L21.6836 30.9492C21.889 31.0175 22.1111 31.0174 22.3164 30.9487C22.5218 30.88 22.6993 30.7465 22.8223 30.5684L27.1094 24.3574C27.5717 23.6873 28.4608 23.5305 29.123 24.002C29.123 24.0026 29.123 24.0033 29.123 24.0039C29.7699 24.4638 29.9245 25.3314 29.4746 25.9863L23.8027 34.2441C23.5563 34.6011 23.1184 34.7591 22.7012 34.6387L16.2773 32.7832C16.1284 32.7402 15.9715 32.7325 15.819 32.7605C15.6666 32.7886 15.5227 32.8517 15.3989 32.9449C15.275 33.0381 15.1745 33.1588 15.1052 33.2975C15.036 33.4362 15 33.5891 15 33.7441V45H17V35.0742L22.1465 36.5605C23.3846 36.9179 24.7214 36.4388 25.4512 35.377C25.4518 35.377 25.4525 35.377 25.4531 35.377L31.123 27.1191V27.1172C32.1778 25.5802 31.8019 23.4528 30.2832 22.373C29.7013 21.9588 29.0299 21.7536 28.3613 21.7422Z" fill="#0050A2"/>
</svg>
