<svg width="14" height="14" viewBox="0 0 14 14" fill="none" xmlns="http://www.w3.org/2000/svg">
<path d="M5.93294 0.599976C2.99374 0.599976 0.599609 2.99411 0.599609 5.93331C0.599609 8.87251 2.99374 11.2666 5.93294 11.2666C7.21108 11.2666 8.38488 10.8128 9.30482 10.0594L12.4892 13.2437C12.5383 13.2949 12.5972 13.3358 12.6623 13.3639C12.7275 13.3921 12.7976 13.407 12.8685 13.4077C12.9395 13.4084 13.0099 13.395 13.0756 13.3681C13.1413 13.3413 13.2009 13.3017 13.2511 13.2515C13.3013 13.2013 13.3409 13.1416 13.3678 13.0759C13.3946 13.0102 13.408 12.9398 13.4073 12.8689C13.4066 12.7979 13.3917 12.7278 13.3636 12.6627C13.3354 12.5976 13.2945 12.5387 13.2434 12.4896L10.059 9.30518C10.8124 8.38525 11.2663 7.21145 11.2663 5.93331C11.2663 2.99411 8.87214 0.599976 5.93294 0.599976ZM5.93294 1.66664C8.29567 1.66664 10.1996 3.57058 10.1996 5.93331C10.1996 8.29604 8.29567 10.2 5.93294 10.2C3.57021 10.2 1.66628 8.29604 1.66628 5.93331C1.66628 3.57058 3.57021 1.66664 5.93294 1.66664Z" fill="white"/>
</svg>
