<svg width="60" height="60" viewBox="0 0 60 60" fill="none" xmlns="http://www.w3.org/2000/svg">
<path d="M30 6.96875C29.5 6.96875 28.9961 7.09766 28.5508 7.35938C28.543 7.35938 28.5391 7.36328 28.5313 7.36719C28.5313 7.36719 23.2695 10.5703 18 13.8477C15.3672 15.4883 12.7344 17.1445 10.7422 18.4375C9.75 19.0859 8.91797 19.6406 8.32032 20.0625C8.01953 20.2773 7.77735 20.4531 7.58594 20.6094C7.49219 20.6875 7.41016 20.7578 7.32032 20.8516C7.27344 20.8984 7.22657 20.9492 7.16407 21.0391C7.10547 21.1289 6.98828 21.2422 6.96875 21.6016C6.9336 22.2266 7.11719 22.2578 7.21094 22.4062C7.30078 22.5547 7.40625 22.6875 7.52735 22.8438C7.77344 23.1484 8.09375 23.5117 8.47657 23.9258C8.61328 24.0703 8.81641 24.2734 8.96875 24.4336C8.96875 27.75 8.97657 34.6797 8.98047 36.2812C8.375 36.6406 8 37.293 8 38C8 38.2305 8.04297 38.4609 8.1211 38.6797C7.44532 39.2266 7 40.043 7 40.9688C7 42.1484 7.61328 43.1523 8.14453 44.0352C8.67578 44.9219 9.20703 45.6094 9.20703 45.6094C9.39453 45.8555 9.6875 46 9.9961 46C10.3047 46 10.5977 45.8594 10.7891 45.6172C10.7891 45.6172 11.3203 44.9375 11.8555 44.0586C12.3906 43.1758 13 42.1602 13 40.9688C13 40.043 12.5547 39.2266 11.8789 38.6797C11.957 38.4609 12 38.2305 12 38C12 37.3047 11.6367 36.6602 11.0469 36.2969C11.0469 35 11.0391 30.3984 11.0352 26.5664C11.1133 26.6445 11.1758 26.7148 11.2578 26.793C13.1133 28.6523 14.6914 30.168 14.9688 30.4375C13.9648 30.9688 13 32.2305 13 34.2227C13 36.2734 14.2695 38.2227 16.2539 38.7852C17.5313 42.0234 19.1563 45.4219 21.3086 48.1094C23.5195 50.8711 26.3633 52.9258 29.832 52.9883C29.8867 52.9961 29.9375 53 29.9922 53H29.9961C30 53 30 53 30.0039 53C30.0078 53 30.0117 53 30.0156 53C30.0547 53 30.0977 52.9961 30.1406 52.9883C33.6211 52.9375 36.4727 50.8789 38.6914 48.1094C40.8438 45.4219 42.4688 42.0234 43.7461 38.7852C45.7305 38.2227 47 36.2734 47 34.2227C47 32.2305 46.0352 30.9688 45.0313 30.4375C45.3086 30.168 46.8867 28.6523 48.7461 26.793C49.75 25.7852 50.7578 24.7539 51.5234 23.9258C51.9063 23.5117 52.2266 23.1484 52.4727 22.8438C52.5938 22.6875 52.6992 22.5547 52.793 22.4062C52.8828 22.2578 53.0664 22.2266 53.0313 21.6016C53.0117 21.2383 52.8945 21.125 52.832 21.0352C52.7734 20.9492 52.7266 20.8984 52.6797 20.8516C52.5898 20.7578 52.5078 20.6875 52.4102 20.6094C52.2227 20.4531 51.9805 20.2773 51.6797 20.0625C51.082 19.6406 50.25 19.0859 49.2539 18.4375C47.2656 17.1445 44.6328 15.4883 42 13.8477C36.7305 10.5703 31.4688 7.36719 31.4688 7.36719C31.4609 7.36328 31.457 7.35938 31.4492 7.35938C31.0039 7.09766 30.5 6.96875 30 6.96875ZM30 9.03125C30.1406 9.03125 30.2813 9.07031 30.4102 9.14453C30.4297 9.15625 35.6602 12.3359 40.9063 15.6016C43.5352 17.2383 46.1641 18.8945 48.1289 20.1719C49.1133 20.8125 49.9297 21.3594 50.4883 21.75C50.543 21.7891 50.5586 21.8047 50.6055 21.8398C50.4297 22.0469 50.2617 22.2461 50.0039 22.5234C49.2734 23.3164 48.2813 24.332 47.2813 25.332C45.6602 26.957 44.5859 27.9883 44.0313 28.5195V24C44.0313 23.6406 43.8477 23.3086 43.5391 23.1211C43.5391 23.1211 38.3398 19.9688 30 19.9688C21.6602 19.9688 16.4609 23.1211 16.4609 23.1211C16.1523 23.3086 15.9688 23.6406 15.9688 24V28.5195C15.4141 27.9883 14.3398 26.957 12.7188 25.332C12.0391 24.6562 11.4609 24.0469 10.8672 23.4258C10.7969 23.3125 10.6992 23.2148 10.5898 23.1406C10.4063 22.9453 10.1523 22.6992 9.99219 22.5273C9.73828 22.2461 9.57032 22.043 9.39063 21.8398C9.44141 21.8008 9.45703 21.7891 9.51172 21.75C10.0703 21.3555 10.8867 20.8086 11.8711 20.1719C13.8359 18.8906 16.4648 17.2383 19.0938 15.6016C24.3398 12.3359 29.5703 9.15625 29.5898 9.14453C29.7188 9.07031 29.8594 9.03125 30 9.03125ZM30 22.0312C37.2422 22.0312 41.332 24.3008 41.9688 24.668V28.6406C40.3945 28.1172 36.5391 26.9688 30 26.9688C23.4609 26.9688 19.6055 28.1172 18.0313 28.6406V24.668C18.668 24.3008 22.7578 22.0312 30 22.0312ZM30 29.0312C36.3906 29.0312 40.6367 30.2852 42 30.75V32.1133L43.1094 31.9961C43.1094 31.9961 43.6016 31.957 44.0625 32.1836C44.5273 32.4062 45 32.7305 45 34.2227C45 35.625 44.0938 36.8828 42.8984 37.0039L42.2852 37.0664L42.0664 37.6406C40.8086 40.8984 39.1602 44.3203 37.1289 46.8594C35.0977 49.3945 32.7695 51 30.0039 51C30 51 30 51 29.9961 51C27.2305 51 24.9023 49.3945 22.8711 46.8594C20.8398 44.3203 19.1914 40.8984 17.9336 37.6406L17.7148 37.0664L17.1016 37.0039C15.9063 36.8828 15 35.625 15 34.2227C15 32.7305 15.4727 32.4062 15.9375 32.1836C16.3984 31.957 16.8906 31.9961 16.8906 31.9961L18 32.1133V30.75C19.3633 30.2852 23.6094 29.0312 30 29.0312ZM10 40C10.5742 40 11 40.4336 11 40.9688C11 41.2539 10.6094 42.25 10.1445 43.0156C10.0742 43.1328 10.0742 43.1172 10.0039 43.2227C9.9336 43.1094 9.92969 43.125 9.85547 43.0039C9.38672 42.2305 9 41.2148 9 40.9688C9 40.4336 9.42578 40 10 40Z" fill="#0050A2"/>
</svg>
