<svg width="50" height="50" viewBox="0 0 50 50" fill="none" xmlns="http://www.w3.org/2000/svg">
<g clip-path="url(#clip0)">
<path d="M0.812508 4C0.335946 4.08984 -0.00780406 4.51172 8.43947e-06 5V45C8.43947e-06 45.5508 0.449227 46 1.00001 46H49C49.5508 46 50 45.5508 50 45V5C50 4.44922 49.5508 4 49 4H1.00001C0.968758 4 0.937508 4 0.906258 4C0.875008 4 0.843758 4 0.812508 4ZM2.00001 6H48V44H2.00001V6ZM41 12.1875C40.707 12.2188 40.4453 12.3789 40.2813 12.625L38.0625 15.75L36.3125 14.4062C35.8711 14.0703 35.2422 14.1523 34.9063 14.5938C34.5703 15.0352 34.6524 15.6641 35.0938 16L37.6875 18C37.9063 18.168 38.1797 18.2422 38.4531 18.1992C38.7266 18.1602 38.9688 18.0078 39.125 17.7812L41.9063 13.7812C42.1445 13.4609 42.1719 13.0352 41.9766 12.6875C41.7774 12.3438 41.3945 12.1445 41 12.1875ZM9.00001 14V16H29V14H9.00001ZM41 22.1875C40.707 22.2188 40.4453 22.3789 40.2813 22.625L38.0625 25.75L36.3125 24.4062C35.8711 24.0703 35.2422 24.1523 34.9063 24.5938C34.5703 25.0352 34.6524 25.6641 35.0938 26L37.6875 28C37.9063 28.168 38.1797 28.2422 38.4531 28.1992C38.7266 28.1602 38.9688 28.0078 39.125 27.7812L41.9063 23.7812C42.1445 23.4609 42.1719 23.0352 41.9766 22.6875C41.7774 22.3438 41.3945 22.1445 41 22.1875ZM9.00001 24V26H29V24H9.00001ZM41 32.1875C40.707 32.2188 40.4453 32.3789 40.2813 32.625L38.0625 35.75L36.3125 34.4062C35.8711 34.0703 35.2422 34.1523 34.9063 34.5938C34.5703 35.0352 34.6524 35.6641 35.0938 36L37.6875 38C37.9063 38.168 38.1797 38.2422 38.4531 38.1992C38.7266 38.1602 38.9688 38.0078 39.125 37.7812L41.9063 33.7812C42.1445 33.4609 42.1719 33.0352 41.9766 32.6875C41.7774 32.3438 41.3945 32.1445 41 32.1875ZM9.00001 34V36H29V34H9.00001Z" fill="#0050A2"/>
</g>
<defs>
<clipPath id="clip0">
<rect width="50" height="50" fill="white"/>
</clipPath>
</defs>
</svg>
