<svg width="50" height="50" viewBox="0 0 50 50" fill="none" xmlns="http://www.w3.org/2000/svg">
<g clip-path="url(#clip0)">
<path d="M7.00001 7C5.35548 7 4.00001 8.35547 4.00001 10V32C4.00001 32.75 4.28517 33.4414 4.75001 33.9687L0.40626 39.7812C0.12501 40.1602 1.01717e-05 40.6094 1.01717e-05 41C1.01717e-05 41.0078 1.01717e-05 41.0234 1.01717e-05 41.0312V42C-0.0156148 43.6445 1.35548 45 3.00001 45H47C48.6445 45 50.0156 43.6445 50 42V41.0312C50 41.0234 50 41.0078 50 41C50 40.6094 49.8789 40.1602 49.5938 39.7812L45.25 33.9687C45.7149 33.4414 46 32.75 46 32V10C46 8.35547 44.6445 7 43 7H7.00001ZM7.00001 9H43C43.5664 9 44 9.43359 44 10V32C44 32.5664 43.5664 33 43 33H7.00001C6.4336 33 6.00001 32.5664 6.00001 32V10C6.00001 9.43359 6.4336 9 7.00001 9ZM24 11V31H26V11H24ZM9.71876 12C9.16798 12.0781 8.78126 12.5898 8.85938 13.1406C8.93751 13.6914 9.44923 14.0781 10 14H20C20.3594 14.0039 20.6953 13.8164 20.8789 13.5039C21.0586 13.1914 21.0586 12.8086 20.8789 12.4961C20.6953 12.1836 20.3594 11.9961 20 12H10C9.96876 12 9.93751 12 9.90626 12C9.87501 12 9.84376 12 9.81251 12C9.78126 12 9.75001 12 9.71876 12ZM29.7188 12C29.168 12.0781 28.7813 12.5898 28.8594 13.1406C28.9375 13.6914 29.4492 14.0781 30 14H40C40.3594 14.0039 40.6953 13.8164 40.8789 13.5039C41.0586 13.1914 41.0586 12.8086 40.8789 12.4961C40.6953 12.1836 40.3594 11.9961 40 12H30C29.9688 12 29.9375 12 29.9063 12C29.875 12 29.8438 12 29.8125 12C29.7813 12 29.75 12 29.7188 12ZM9.71876 16C9.16798 16.0781 8.78126 16.5898 8.85938 17.1406C8.93751 17.6914 9.44923 18.0781 10 18H17C17.3594 18.0039 17.6953 17.8164 17.8789 17.5039C18.0586 17.1914 18.0586 16.8086 17.8789 16.4961C17.6953 16.1836 17.3594 15.9961 17 16H10C9.96876 16 9.93751 16 9.90626 16C9.87501 16 9.84376 16 9.81251 16C9.78126 16 9.75001 16 9.71876 16ZM29.7188 16C29.168 16.0781 28.7813 16.5898 28.8594 17.1406C28.9375 17.6914 29.4492 18.0781 30 18H37C37.3594 18.0039 37.6953 17.8164 37.8789 17.5039C38.0586 17.1914 38.0586 16.8086 37.8789 16.4961C37.6953 16.1836 37.3594 15.9961 37 16H30C29.9688 16 29.9375 16 29.9063 16C29.875 16 29.8438 16 29.8125 16C29.7813 16 29.75 16 29.7188 16ZM9.71876 20C9.16798 20.0781 8.78126 20.5898 8.85938 21.1406C8.93751 21.6914 9.44923 22.0781 10 22H20C20.3594 22.0039 20.6953 21.8164 20.8789 21.5039C21.0586 21.1914 21.0586 20.8086 20.8789 20.4961C20.6953 20.1836 20.3594 19.9961 20 20H10C9.96876 20 9.93751 20 9.90626 20C9.87501 20 9.84376 20 9.81251 20C9.78126 20 9.75001 20 9.71876 20ZM29.7188 20C29.168 20.0781 28.7813 20.5898 28.8594 21.1406C28.9375 21.6914 29.4492 22.0781 30 22H40C40.3594 22.0039 40.6953 21.8164 40.8789 21.5039C41.0586 21.1914 41.0586 20.8086 40.8789 20.4961C40.6953 20.1836 40.3594 19.9961 40 20H30C29.9688 20 29.9375 20 29.9063 20C29.875 20 29.8438 20 29.8125 20C29.7813 20 29.75 20 29.7188 20ZM9.71876 24C9.16798 24.0781 8.78126 24.5898 8.85938 25.1406C8.93751 25.6914 9.44923 26.0781 10 26H17C17.3594 26.0039 17.6953 25.8164 17.8789 25.5039C18.0586 25.1914 18.0586 24.8086 17.8789 24.4961C17.6953 24.1836 17.3594 23.9961 17 24H10C9.96876 24 9.93751 24 9.90626 24C9.87501 24 9.84376 24 9.81251 24C9.78126 24 9.75001 24 9.71876 24ZM29.7188 24C29.168 24.0781 28.7813 24.5898 28.8594 25.1406C28.9375 25.6914 29.4492 26.0781 30 26H37C37.3594 26.0039 37.6953 25.8164 37.8789 25.5039C38.0586 25.1914 38.0586 24.8086 37.8789 24.4961C37.6953 24.1836 37.3594 23.9961 37 24H30C29.9688 24 29.9375 24 29.9063 24C29.875 24 29.8438 24 29.8125 24C29.7813 24 29.75 24 29.7188 24ZM9.71876 28C9.16798 28.0781 8.78126 28.5898 8.85938 29.1406C8.93751 29.6914 9.44923 30.0781 10 30H20C20.3594 30.0039 20.6953 29.8164 20.8789 29.5039C21.0586 29.1914 21.0586 28.8086 20.8789 28.4961C20.6953 28.1836 20.3594 27.9961 20 28H10C9.96876 28 9.93751 28 9.90626 28C9.87501 28 9.84376 28 9.81251 28C9.78126 28 9.75001 28 9.71876 28ZM29.7188 28C29.168 28.0781 28.7813 28.5898 28.8594 29.1406C28.9375 29.6914 29.4492 30.0781 30 30H40C40.3594 30.0039 40.6953 29.8164 40.8789 29.5039C41.0586 29.1914 41.0586 28.8086 40.8789 28.4961C40.6953 28.1836 40.3594 27.9961 40 28H30C29.9688 28 29.9375 28 29.9063 28C29.875 28 29.8438 28 29.8125 28C29.7813 28 29.75 28 29.7188 28ZM6.75001 35H43.5C43.5078 35 43.5274 34.9922 43.5313 35L48 40.9687V42C48.0039 42.5586 47.5586 43 47 43H3.00001C2.44142 43 1.9961 42.5586 2.00001 42V40.9687L6.31251 35.2187C6.45704 35.1445 6.60157 35.0742 6.75001 35ZM19.5 38C19.1602 38 18.8399 38.1836 18.6563 38.4687L17 41H33L31.3438 38.4687C31.1602 38.1836 30.8399 38 30.5 38H19.5Z" fill="#0050A2"/>
</g>
<defs>
<clipPath id="clip0">
<rect width="50" height="50" fill="white"/>
</clipPath>
</defs>
</svg>
