<svg width="50" height="50" viewBox="0 0 50 50" fill="none" xmlns="http://www.w3.org/2000/svg">
<path d="M10 4V20H2.99414L3.14648 46H17.0469H19.0469H33H47V8H31V9V28H25.9961V4.00781L10 4ZM12 6L23.9961 6.00781V28H19.0137L18.998 20H18H12V6ZM15 8V10H17V8H15ZM19.0391 8V10H21V8H19.0391ZM33 10H45V44H39.9609V40H38V44H33V28V10ZM15 12V14H17V12H15ZM19 12V14H21V12H19ZM36 12.0039V14H38V12.0039H36ZM40.0195 12.0078V14.0215H41.9805V12.0078H40.0195ZM36 16.0156V18H38V16.0156H36ZM40.0195 16.0156V18H41.9805V16.0156H40.0195ZM36 20V22H38V20H36ZM40 20V22H41.9805V20H40ZM5.00586 22H17.002L17.0137 28H16.998L17.041 44H11.9805V40H10.0195V44H5.13477L5.00586 22ZM8 24V26.0156H10.0391V24H8ZM12.0391 24V26.0156H14V24H12.0391ZM36 24.0078V25.998H38V24.0078H36ZM40 24.0078V25.998H41.9805V24.0078H40ZM8 27.9844V30H10.0391V27.9844H8ZM12.0391 27.9844V30H14V27.9844H12.0391ZM36 27.9922V30.0078H38V27.9922H36ZM40.0195 27.9922V30.0078H41.9805V27.9922H40.0195ZM19.0176 30H31V44H26V40H24V44H19.043L19.0176 30ZM8 32V34.0156H10.0391V32H8ZM12.0391 32V34.0156H14V32H12.0391ZM22 32V34.0156H24V32H22ZM26 32V34.0156H28V32H26ZM36 32V34.0156H38V32H36ZM40.0195 32V34.0156H41.9805V32H40.0195ZM22 35.9844V38H24V35.9844H22ZM26 35.9844V38H28V35.9844H26ZM36 35.9844V38H38V35.9844H36ZM40.0195 35.9844V38H41.9805V35.9844H40.0195Z" fill="#0050A2"/>
</svg>
