<svg width="50" height="50" viewBox="0 0 50 50" fill="none" xmlns="http://www.w3.org/2000/svg">
<g clip-path="url(#clip0)">
<path d="M7 2V48H26.1582L26.7266 46H9V4H29V16H41V28.4102L41.625 27.7852C42.038 27.3722 42.502 27.0299 43 26.7559V14.5859L30.4141 2H7ZM31 5.41406L39.5859 14H31V5.41406ZM36 23C35.4696 23 34.9609 23.2107 34.5858 23.5858C34.2107 23.9609 34 24.4696 34 25C34 25.2486 34.0464 25.495 34.1367 25.7266L28.2988 33.0254C28.2 33.0095 28.1001 33.001 28 33C27.8648 33.0007 27.73 33.0151 27.5977 33.043L21.8965 26.6289C21.9644 26.4262 21.9993 26.2138 22 26C22 25.4696 21.7893 24.9609 21.4142 24.5858C21.0391 24.2107 20.5304 24 20 24C19.4696 24 18.9609 24.2107 18.5858 24.5858C18.2107 24.9609 18 25.4696 18 26C18.0001 26.1748 18.0231 26.3488 18.0684 26.5176L14.5156 30.0703C14.3475 30.0245 14.1742 30.0009 14 30C13.4696 30 12.9609 30.2107 12.5858 30.5858C12.2107 30.9609 12 31.4696 12 32C12 32.5304 12.2107 33.0391 12.5858 33.4142C12.9609 33.7893 13.4696 34 14 34C14.5304 34 15.0391 33.7893 15.4142 33.4142C15.7893 33.0391 16 32.5304 16 32C15.9999 31.8252 15.9769 31.6512 15.9316 31.4824L19.4844 27.9297C19.6525 27.9755 19.8258 27.9991 20 28C20.1352 27.9993 20.27 27.9849 20.4023 27.957L26.1035 34.3711C26.0356 34.5738 26.0007 34.7862 26 35C26 35.5304 26.2107 36.0391 26.5858 36.4142C26.9609 36.7893 27.4696 37 28 37C28.5304 37 29.0391 36.7893 29.4142 36.4142C29.7893 36.0391 30 35.5304 30 35C30 34.7514 29.9536 34.505 29.8633 34.2734L35.7012 26.9746C35.8 26.9905 35.8999 26.999 36 27C36.5304 27 37.0391 26.7893 37.4142 26.4142C37.7893 26.0391 38 25.5304 38 25C38 24.4696 37.7893 23.9609 37.4142 23.5858C37.0391 23.2107 36.5304 23 36 23ZM45.9629 28C44.9629 28 44.0617 28.3996 43.2617 29.0996L43.0625 29.1992L42.9629 29.3008L42.6621 29.5996L41.9629 30.3008L41.7617 30.5L30.0625 42.3008C29.9625 42.4008 29.8617 42.5992 29.7617 42.6992L28.0625 48.6992C27.8625 49.1992 28.1617 49.8004 28.7617 49.9004C28.9617 50.0004 29.1617 50.0004 29.2617 49.9004L35.2617 48.3008C35.4617 48.3008 35.5617 48.2 35.7617 48L48.5625 35.1992L48.8613 35C50.4613 33.4 50.4613 30.7992 48.8613 29.1992C48.0613 28.2992 46.9629 28 45.9629 28ZM45.9629 30C46.4629 30 47.0629 30.1996 47.4629 30.5996C48.2629 31.3996 48.2625 32.6004 47.5625 33.4004L44.6621 30.5C45.0621 30.2 45.4629 30 45.9629 30ZM43.1621 31.9004L46.1621 34.9004L35.2617 45.8008L32.2617 42.9004L43.1621 31.9004ZM31.2617 44.8008L33.3613 46.9004L30.4629 47.6992L31.2617 44.8008Z" fill="#0050A2"/>
</g>
<defs>
<clipPath id="clip0">
<rect width="50" height="50" fill="white"/>
</clipPath>
</defs>
</svg>
