<svg width="50" height="50" viewBox="0 0 50 50" fill="none" xmlns="http://www.w3.org/2000/svg">
<path d="M5.8125 0C5.33594 0.0898438 4.99219 0.511719 5 1V44C5 44.5508 5.44922 45 6 45H25.8438C27.9453 46.2578 30.3789 47 33 47C36.5039 47 39.6992 45.6953 42.1562 43.5625L48.5938 50L50 48.5938L43.5625 42.1562C45.6953 39.6992 47 36.5039 47 33C47 28.2539 44.6211 24.0664 41 21.5312V1C41 0.449219 40.5508 0 40 0H6C5.96875 0 5.9375 0 5.90625 0C5.875 0 5.84375 0 5.8125 0ZM7 2H39V20.375C37.1758 19.5039 35.1523 19 33 19C29.7344 19 26.7266 20.1211 24.3438 22H14V24H22.2812C21.2891 25.1797 20.5 26.5352 19.9375 28H14V30H19.3438C19.1289 30.9688 19 31.9648 19 33C19 33.3398 19.0078 33.668 19.0313 34H14V36H19.3125C19.9023 38.7031 21.2812 41.1289 23.1875 43H7V2ZM14 10V12H33V10H14ZM14 16V18H33V16H14ZM33 21C35.3711 21 37.5781 21.6641 39.4375 22.8438C39.4688 22.8672 39.5 22.8867 39.5312 22.9062C42.8281 25.043 45 28.7695 45 33C45 39.6406 39.6406 45 33 45C30.5898 45 28.3477 44.3125 26.4688 43.0938C23.1719 40.957 21 37.2305 21 33C21 26.3594 26.3594 21 33 21ZM25 27C24.3008 27.8984 23.8008 28.8984 23.5 30H38V27H25ZM23.1875 35C23.3867 36.1016 23.8125 37.1016 24.3125 38H38V35H23.1875Z" fill="#0050A2"/>
</svg>
