<svg width="50" height="50" viewBox="0 0 50 50" fill="none" xmlns="http://www.w3.org/2000/svg">
<g clip-path="url(#clip0)">
<path d="M46.4062 0.187525C46.0859 0.210963 45.7578 0.277369 45.4375 0.343775C44.1562 0.617213 42.7812 1.21096 41.4375 1.90628C38.7656 3.28909 36.3438 5.03909 35.3125 6.12503H35.2812L28.5312 12.8438L4.53125 9.59378C4.21484 9.55862 3.90234 9.67581 3.6875 9.90628L0.281248 13.4063C0.0507797 13.6446 -0.0507829 13.9844 0.0195297 14.3086C0.0898422 14.6367 0.316404 14.9063 0.624998 15.0313L19.125 22.2813L9.59375 32H5C4.75781 32 4.52344 32.0899 4.34375 32.25L0.343748 35.625C0.0468734 35.8672 -0.0859391 36.2539 -1.61119e-06 36.625C0.0859359 37 0.378904 37.2891 0.749998 37.375L10.2812 39.7188L12.625 49.25C12.7109 49.586 12.9687 49.8516 13.2969 49.9532C13.6289 50.0547 13.9883 49.9766 14.25 49.75L17.6562 46.75C17.875 46.5625 18 46.2891 18 46V40.4063L27.8125 30.875L34.9688 49.375C35.0938 49.6836 35.3633 49.9102 35.6914 49.9805C36.0156 50.0508 36.3555 49.9492 36.5938 49.7188L40.0938 46.3125C40.3242 46.0977 40.4414 45.7852 40.4062 45.4688L37.1562 21.4688L43.9062 14.7188C44.9453 13.6797 46.707 11.2032 48.0938 8.53128C48.7891 7.19534 49.3828 5.83596 49.6562 4.56253C49.9297 3.28909 49.9336 1.94534 49.0312 1.00003C49.0195 0.988306 49.0117 0.980494 49 0.968775C48.5273 0.51565 47.957 0.2969 47.3438 0.218775C47.0391 0.179713 46.7266 0.164088 46.4062 0.187525ZM46.5 2.21878C47.0703 2.17971 47.4023 2.2969 47.5625 2.43753C47.7539 2.65237 47.8945 3.19143 47.6875 4.15628C47.4766 5.13674 46.957 6.38674 46.3125 7.62503C45.0234 10.1055 43.1641 12.6172 42.5 13.2813L35.4062 20.4063C35.1836 20.6133 35.0703 20.9141 35.0938 21.2188L38.3438 45.25L36.3125 47.2188L29.125 28.75C29.0078 28.4375 28.7383 28.2031 28.4141 28.125C28.0859 28.0508 27.7422 28.1446 27.5 28.375L16.3125 39.2813C16.1133 39.4688 16.0039 39.7266 16 40V45.5625L14.1562 47.1563L12.0625 38.6563C11.9727 38.3047 11.6953 38.0274 11.3437 37.9375L3.125 35.9063L5.375 34H10C10.2734 33.9961 10.5312 33.8867 10.7187 33.6875L21.625 22.5938C21.8555 22.3516 21.9492 22.0078 21.875 21.6797C21.7969 21.3555 21.5625 21.086 21.25 20.9688L2.78125 13.7188L4.75 11.6563L28.7812 14.9063C29.0859 14.9297 29.3867 14.8164 29.5937 14.5938L36.7188 7.50003C37.2969 6.88674 39.8516 4.97659 42.3438 3.68753C43.5898 3.04299 44.8555 2.52346 45.8438 2.31253C46.0859 2.26174 46.3086 2.23049 46.5 2.21878Z" fill="#0050A2"/>
</g>
<defs>
<clipPath id="clip0">
<rect width="50" height="50" fill="white"/>
</clipPath>
</defs>
</svg>
