<svg width="60" height="60" viewBox="0 0 60 60" fill="none" xmlns="http://www.w3.org/2000/svg">
<path d="M30 6.91992C17.2651 6.91992 6.91992 17.2651 6.91992 30C6.91992 42.7349 17.2651 53.0801 30 53.0801C42.7349 53.0801 53.0801 42.7349 53.0801 30C53.0801 17.2651 42.7349 6.91992 30 6.91992ZM29 9.03711V18.9707C26.4325 18.9101 23.9914 18.623 21.7402 18.1523C22.1366 16.9515 22.5871 15.8356 23.0879 14.834C24.7408 11.5281 26.8373 9.51605 29 9.03711ZM31 9.03711C33.1627 9.51605 35.2592 11.5281 36.9121 14.834C37.4145 15.8388 37.8664 16.9588 38.2637 18.1641C36.0153 18.63 33.5709 18.9114 31 18.9707V9.03711ZM24.1719 9.74023C23.0865 10.8773 22.1186 12.2998 21.2988 13.9395C20.7275 15.0821 20.2264 16.3427 19.7891 17.6875C17.8259 17.1583 16.0506 16.4924 14.5176 15.7188C17.0975 12.9227 20.4111 10.818 24.1719 9.74023ZM35.8281 9.74023C39.5853 10.817 42.8957 12.919 45.4746 15.7109C43.9642 16.4987 42.1909 17.1721 40.2168 17.7031C39.7784 16.3524 39.2747 15.0865 38.7012 13.9395C37.8814 12.2998 36.9135 10.8773 35.8281 9.74023ZM46.7832 17.2734C49.2803 20.5633 50.8496 24.5965 51.0547 29H42.0137C41.9407 25.6427 41.5116 22.4728 40.7773 19.6328C43.0212 19.0258 45.0436 18.2304 46.7832 17.2734ZM13.2051 17.2891C14.9635 18.2228 16.9893 19.0088 19.2266 19.6152C18.4896 22.4597 18.0595 25.6359 17.9863 29H8.94531C9.15009 24.6035 10.7149 20.5761 13.2051 17.2891ZM21.1758 20.0859C23.6081 20.6035 26.2371 20.9117 29 20.9727V29H19.9863C20.0607 25.7874 20.4807 22.7623 21.1758 20.0859ZM38.8281 20.0996C39.5211 22.7726 39.9394 25.7928 40.0137 29H31V20.9727C33.7645 20.9134 36.3965 20.6123 38.8281 20.0996ZM8.94531 31H17.9863C18.0593 34.3573 18.4884 37.5272 19.2227 40.3672C16.9788 40.9742 14.9564 41.7696 13.2168 42.7266C10.7197 39.4367 9.15041 35.4035 8.94531 31ZM19.9863 31H29V39.0273C26.2355 39.0866 23.6035 39.3877 21.1719 39.9004C20.4789 37.2274 20.0606 34.2072 19.9863 31ZM31 31H40.0137C39.9393 34.2126 39.5193 37.2377 38.8242 39.9141C36.3919 39.3965 33.7629 39.0883 31 39.0273V31ZM42.0137 31H51.0547C50.8499 35.3965 49.2851 39.4239 46.7949 42.7109C45.0365 41.7772 43.0107 40.9912 40.7734 40.3848C41.5104 37.5403 41.9405 34.3641 42.0137 31ZM29 41.0293V50.9629C26.8373 50.4839 24.7408 48.4719 23.0879 45.166C22.5855 44.1612 22.1336 43.0412 21.7363 41.8359C23.9847 41.37 26.4291 41.0886 29 41.0293ZM31 41.0293C33.5675 41.0899 36.0086 41.377 38.2598 41.8477C37.8634 43.0485 37.4129 44.1644 36.9121 45.166C35.2592 48.4719 33.1627 50.4839 31 50.9629V41.0293ZM19.7832 42.2969C20.2216 43.6476 20.7253 44.9135 21.2988 46.0605C22.1186 47.7002 23.0865 49.1227 24.1719 50.2598C20.4147 49.183 17.1043 47.081 14.5254 44.2891C16.0358 43.5013 17.8091 42.8279 19.7832 42.2969ZM40.2109 42.3125C42.1741 42.8417 43.9494 43.5076 45.4824 44.2812C42.9025 47.0773 39.5889 49.182 35.8281 50.2598C36.9135 49.1227 37.8814 47.7002 38.7012 46.0605C39.2725 44.9179 39.7736 43.6573 40.2109 42.3125Z" fill="#0050A2"/>
</svg>
