<svg width="60" height="60" viewBox="0 0 60 60" fill="none" xmlns="http://www.w3.org/2000/svg">
<path d="M20 10C12.832 10 7 15.832 7 23C7 37.7617 23.6953 45.0469 29.375 49.7812L30 50.3125L30.625 49.7812C36.3047 45.0469 53 37.7617 53 23C53 15.832 47.168 10 40 10C35.9453 10 32.3828 11.9258 30 14.8438C27.6172 11.9258 24.0547 10 20 10ZM20 12C23.8359 12 27.1875 13.9688 29.1562 16.9375L30 18.1875L30.8438 16.9375C32.8125 13.9688 36.1641 12 40 12C46.0859 12 51 16.9141 51 23C51 35.8984 36.5938 42.5742 30 47.7812C23.4062 42.5742 9 35.8984 9 23C9 16.9141 13.9141 12 20 12Z" fill="#0050A2"/>
</svg>
