<svg width="50" height="50" viewBox="0 0 50 50" fill="none" xmlns="http://www.w3.org/2000/svg">
<path d="M39.2363 5.00199C30.6174 5.11141 26.6271 7.63098 25.084 8.99223C23.398 7.55423 18.8565 4.78338 8.97654 5.02738C8.43454 5.04038 7.99998 5.48438 7.99998 6.02738V11.1075H6.57615C5.15515 11.1075 3.999 12.2333 4.041 13.6153V38.4942C3.999 39.8762 5.20398 40.9512 6.62498 40.9512H34.7031L32.709 39.0411H6.63279C6.31579 39.0411 6.00096 38.7722 5.95896 38.4942V13.6153C6.00096 13.3373 6.25915 13 6.57615 13H7.99998V33.3067C7.99998 33.5767 8.10776 33.8325 8.30076 34.0215C8.49276 34.2095 8.73942 34.3007 9.02342 34.3067C20.7904 34.0307 24.3741 36.7544 24.4551 36.8184C24.6391 36.9724 24.8676 37.0528 25.0996 37.0528C25.2406 37.0528 25.3826 37.023 25.5156 36.961C25.6596 36.896 25.7829 36.7987 25.8789 36.6797C26.1869 36.4757 27.1412 35.9319 29.0742 35.4219L27.4531 33.8008C26.9231 33.9728 26.333 34.1456 25.957 34.3086V32.4473L24.0996 30.4473V34.3575C22.0936 33.4725 18.0342 32.2871 10.7012 32.2871C10.4702 32.2871 10.236 32.2881 9.99803 32.2911V7.01371H10.1426C19.6666 6.99971 23.1933 9.90951 24.0273 10.7305V19.6524L25.959 20.4024V10.7871C26.758 9.96215 30.434 6.97104 40 7.00004V30.7891L42 32.7891V12.9707H43.4531C43.7701 12.9707 44 13.2299 44 13.5079V34.793L45.957 36.793V13.5059C45.957 12.1239 44.8839 11.0371 43.4629 11.0371H42V6.01371C42 5.47071 41.5664 5.02671 41.0234 5.01371C40.407 4.99852 39.8109 4.9947 39.2363 5.00199ZM24.2676 21.8848C24.1108 21.8924 23.958 21.9367 23.8215 22.0143C23.6851 22.0918 23.5688 22.2004 23.4821 22.3312C23.3954 22.4621 23.3407 22.6115 23.3224 22.7673C23.3041 22.9232 23.3228 23.0812 23.3769 23.2286L25.4316 28.8184C25.4812 28.9548 25.5598 29.0787 25.6621 29.1817L42.6738 46.1914C42.8042 46.3218 42.968 46.4136 43.1472 46.4566C43.3264 46.4997 43.5141 46.4924 43.6894 46.4356L44.0097 46.7559C45.1673 47.9135 47.0694 47.8896 48.2265 46.7325C48.2265 46.7318 48.2265 46.7312 48.2265 46.7305C49.3825 45.5716 49.4079 43.6696 48.25 42.5118L47.8926 42.1543C47.9269 41.9919 47.9202 41.8234 47.8732 41.6642C47.8261 41.505 47.7401 41.3599 47.623 41.2422L30.6133 24.2305C30.5109 24.1285 30.3876 24.0498 30.2519 24L24.6601 21.9454C24.5346 21.8991 24.4011 21.8785 24.2676 21.8848ZM26.7793 24.8536L28.8008 25.5977L28.5762 25.8223C28.391 26.0074 28.2858 26.2578 28.2832 26.5196L28.2812 26.8125L27.9883 26.8145C27.7258 26.8166 27.4746 26.9218 27.289 27.1075L27.0293 27.3672L26.2851 25.3477L26.7793 24.8536ZM30.3906 26.836L42.8808 39.3282L40.7597 41.4493L28.2676 28.9571L28.414 28.8106L29.2812 28.8047C29.5434 28.8021 29.7941 28.6967 29.9793 28.5112C30.1645 28.3256 30.2694 28.0747 30.2715 27.8125L30.2793 26.9473L30.3906 26.836ZM44.2969 40.7422L45.5019 41.9493L43.3808 44.0704L42.1758 42.8633L44.2969 40.7422ZM46.5937 43.6836L46.8359 43.9258C47.194 44.2839 47.1966 44.9313 46.8105 45.3184C46.4255 45.7019 45.7818 45.6998 45.4238 45.3418L45.1797 45.0996L46.5937 43.6836Z" fill="#0050A2"/>
</svg>
