<svg width="50" height="50" viewBox="0 0 50 50" fill="none" xmlns="http://www.w3.org/2000/svg">
<path d="M18 2C10.354 2 7 7.09833 7 11.1484C7 14.2471 8.64836 16.5703 10.8105 17.9805C12.9727 19.3907 15.6306 20 18 20C19.0221 20 20.0955 19.872 21.1602 19.6211C23.4413 22.0279 26.9772 23 30 23C32.3785 23 35.0409 22.3559 37.2012 20.9043C39.3615 19.4527 41 17.0895 41 13.9609C41 11.4729 39.8918 9.17686 37.9551 7.5625C36.0184 5.94814 33.2799 5 30 5C28.8214 5 27.7471 5.12259 26.7637 5.33789C26.5114 5.06671 26.2456 4.80465 25.9551 4.5625C24.0184 2.94814 21.2799 2 18 2ZM18 4C20.8951 4 23.1562 4.83297 24.6758 6.09961C24.9497 6.32795 25.193 6.57364 25.4199 6.82812L25.4219 6.83008C25.4971 7.01987 25.6287 7.18208 25.7988 7.29492C26.5834 8.35784 27 9.60144 27 10.9609C27 13.4194 25.8296 15.0725 24.0859 16.2441C22.3422 17.4158 20.0055 18 18 18C15.9854 18 13.6442 17.4427 11.9023 16.3066C10.1605 15.1706 9 13.5687 9 11.1484C9 8.15054 11.208 4 18 4ZM30 7C32.8951 7 35.1562 7.83297 36.6758 9.09961C38.1953 10.3663 39 12.053 39 13.9609C39 16.4194 37.8296 18.0725 36.0859 19.2441C34.3422 20.4158 32.0055 21 30 21C27.7635 21 25.1712 20.2848 23.3711 18.8945C24.0067 18.6184 24.6225 18.2931 25.2012 17.9043C27.3615 16.4527 29 14.0895 29 10.9609C29 9.60052 28.6579 8.30228 28.041 7.13672C28.6468 7.05062 29.2954 7 30 7ZM5.5 18C3.68694 18 2 19.2199 2 21C2 22.7801 3.68694 24 5.5 24C7.31306 24 9 22.7801 9 21C9 19.2199 7.31306 18 5.5 18ZM44.5 18C42.6869 18 41 19.2199 41 21C41 22.7801 42.6869 24 44.5 24C46.3131 24 48 22.7801 48 21C48 19.2199 46.3131 18 44.5 18ZM5.5 20C6.44836 20 7 20.571 7 21C7 21.429 6.44836 22 5.5 22C4.55164 22 4 21.429 4 21C4 20.571 4.55164 20 5.5 20ZM44.5 20C45.4484 20 46 20.571 46 21C46 21.429 45.4484 22 44.5 22C43.5516 22 43 21.429 43 21C43 20.571 43.5516 20 44.5 20ZM14.0312 24C11.8655 24 10.1103 24.5422 8.875 25.5762C7.63974 26.6101 7 28.1286 7 29.75C7 30.378 7.14471 31.0174 7.27734 31.5645C7.33813 31.8152 7.35219 31.8415 7.40039 32.0137C7.17729 32.3705 7 32.8626 7 33.5C7 34.2917 7.21352 34.9713 7.66797 35.4258C7.87151 35.6293 8.09103 35.595 8.32031 35.6836C8.45196 36.2155 8.58651 36.7569 8.82031 37.1953C8.98161 37.4978 9.15428 37.7697 9.33789 38.0059C9.38011 38.0602 9.45847 38.101 9.5 38.1523V39.7031C9.36205 40.0011 9.07747 40.2899 8.48242 40.6055C7.84862 40.9416 6.97808 41.2623 6.07227 41.6816C5.16645 42.101 4.20946 42.626 3.42969 43.4648C2.64991 44.3037 2.09204 45.4736 2.00195 46.9395C1.99371 47.0756 2.0134 47.212 2.05983 47.3403C2.10626 47.4685 2.17843 47.586 2.27191 47.6853C2.3654 47.7846 2.47821 47.8638 2.60342 47.9179C2.72863 47.972 2.86359 48 3 48H23H24H25.9688H27H47C47.1364 48 47.2714 47.972 47.3966 47.9179C47.5218 47.8638 47.6346 47.7846 47.7281 47.6853C47.8216 47.586 47.8937 47.4685 47.9402 47.3403C47.9866 47.212 48.0063 47.0756 47.998 46.9395C47.9059 45.4408 47.2496 44.246 46.3652 43.416C45.4809 42.5861 44.4094 42.0769 43.3828 41.6621C42.3562 41.2473 41.3596 40.9242 40.6309 40.582C39.9428 40.2589 39.6241 39.9556 39.5 39.6973V38.1504C39.5414 38.0991 39.6199 38.0582 39.6621 38.0039C39.8455 37.7678 40.0165 37.4976 40.1777 37.1953C40.4115 36.757 40.5478 36.2153 40.6797 35.6836C40.909 35.595 41.1285 35.6293 41.332 35.4258C41.7865 34.9713 42 34.2917 42 33.5C42 32.8626 41.8227 32.3705 41.5996 32.0137C41.6478 31.8415 41.6619 31.8152 41.7227 31.5645C41.8553 31.0174 42 30.378 42 29.75C42 28.6939 41.7287 27.5572 41.0215 26.6172C40.4312 25.8325 39.4408 25.3279 38.2832 25.1504L37.8906 24.4902C37.8022 24.341 37.6765 24.2174 37.5258 24.1314C37.3751 24.0455 37.2047 24.0002 37.0312 24C34.8655 24 33.1103 24.5422 31.875 25.5762C30.6397 26.6101 30 28.1286 30 29.75C30 30.378 30.1447 31.0174 30.2773 31.5645C30.3381 31.8152 30.3522 31.8415 30.4004 32.0137C30.1773 32.3705 30 32.8626 30 33.5C30 34.2917 30.2135 34.9713 30.668 35.4258C30.8715 35.6293 31.091 35.595 31.3203 35.6836C31.452 36.2155 31.5865 36.7569 31.8203 37.1953C31.9816 37.4978 32.1543 37.7697 32.3379 38.0059C32.3801 38.0602 32.4585 38.101 32.5 38.1523V39.7031C32.362 40.0011 32.0775 40.2899 31.4824 40.6055C30.8486 40.9416 29.9781 41.2623 29.0723 41.6816C28.1664 42.101 27.2095 42.626 26.4297 43.4648C25.6499 44.3037 25.092 45.4736 25.002 46.9395C25.0007 46.9596 25 46.9798 25 47C25 46.9798 24.9993 46.9596 24.998 46.9395C24.9059 45.4408 24.2496 44.246 23.3652 43.416C22.4809 42.5861 21.4094 42.0769 20.3828 41.6621C19.3562 41.2473 18.3596 40.9242 17.6309 40.582C16.9428 40.2589 16.6241 39.9556 16.5 39.6973V38.1504C16.5414 38.0991 16.6199 38.0582 16.6621 38.0039C16.8455 37.7678 17.0165 37.4976 17.1777 37.1953C17.4115 36.757 17.5478 36.2153 17.6797 35.6836C17.909 35.595 18.1285 35.6293 18.332 35.4258C18.7865 34.9713 19 34.2917 19 33.5C19 32.8626 18.8227 32.3705 18.5996 32.0137C18.6478 31.8415 18.6619 31.8152 18.7227 31.5645C18.8553 31.0174 19 30.378 19 29.75C19 28.6939 18.7287 27.5572 18.0215 26.6172C17.4312 25.8325 16.4408 25.3279 15.2832 25.1504L14.8906 24.4902C14.8022 24.341 14.6765 24.2174 14.5258 24.1314C14.3751 24.0455 14.2047 24.0002 14.0312 24ZM3.5 26C3.10218 26 2.72064 26.158 2.43934 26.4393C2.15804 26.7206 2 27.1022 2 27.5C2 27.8978 2.15804 28.2794 2.43934 28.5607C2.72064 28.842 3.10218 29 3.5 29C3.89782 29 4.27936 28.842 4.56066 28.5607C4.84196 28.2794 5 27.8978 5 27.5C5 27.1022 4.84196 26.7206 4.56066 26.4393C4.27936 26.158 3.89782 26 3.5 26ZM46.5 26C46.1022 26 45.7206 26.158 45.4393 26.4393C45.158 26.7206 45 27.1022 45 27.5C45 27.8978 45.158 28.2794 45.4393 28.5607C45.7206 28.842 46.1022 29 46.5 29C46.8978 29 47.2794 28.842 47.5607 28.5607C47.842 28.2794 48 27.8978 48 27.5C48 27.1022 47.842 26.7206 47.5607 26.4393C47.2794 26.158 46.8978 26 46.5 26ZM13.5039 26.0703L13.7656 26.5098C13.8541 26.659 13.9798 26.7826 14.1304 26.8686C14.2811 26.9545 14.4515 26.9998 14.625 27C15.562 27 16.0476 27.3229 16.4219 27.8203C16.7961 28.3178 17 29.0561 17 29.75C17 29.997 16.8947 30.6076 16.7773 31.0918C16.66 31.576 16.5449 31.9551 16.5449 31.9551C16.4834 32.1557 16.4864 32.3706 16.5537 32.5693C16.621 32.768 16.7491 32.9406 16.9199 33.0625C16.933 33.0818 17 33.1726 17 33.5C17 33.9583 16.901 34.0287 16.918 34.0117C16.9349 33.9948 16.9583 34 16.875 34C16.6287 34 16.3911 34.0909 16.2076 34.2552C16.0242 34.4196 15.9078 34.6458 15.8809 34.8906C15.8393 35.2685 15.6438 35.8231 15.4141 36.2539C15.2992 36.4693 15.1757 36.6567 15.082 36.7773C14.9884 36.898 14.8741 36.946 15.043 36.8594C14.8793 36.9435 14.742 37.0712 14.6462 37.2283C14.5504 37.3854 14.4998 37.566 14.5 37.75V40C14.5004 40.1215 14.5229 40.242 14.5664 40.3555C14.9632 41.3963 15.8693 41.9652 16.7793 42.3926C17.6893 42.8199 18.6978 43.1378 19.6328 43.5156C20.5678 43.8934 21.4134 44.3282 21.9961 44.875C22.3358 45.1938 22.5727 45.5672 22.7461 46H4.42383C4.57941 45.6155 4.63192 45.1087 4.89453 44.8262C5.39445 44.2884 6.10618 43.8692 6.91211 43.4961C7.71804 43.123 8.60253 42.8046 9.41992 42.3711C10.2373 41.9376 11.057 41.3446 11.4336 40.3555C11.4771 40.242 11.4996 40.1215 11.5 40V37.75C11.5 37.5658 11.4491 37.3851 11.353 37.2279C11.2568 37.0708 11.1191 36.9432 10.9551 36.8594C11.1237 36.9457 11.0097 36.8978 10.916 36.7773C10.8223 36.6568 10.7008 36.4692 10.5859 36.2539C10.3563 35.8233 10.1603 35.2681 10.1191 34.8906C10.0922 34.6458 9.97583 34.4196 9.79238 34.2552C9.60894 34.0909 9.3713 34 9.125 34C9.04167 34 9.06508 33.9948 9.08203 34.0117C9.09898 34.0287 9 33.9583 9 33.5C9 33.1726 9.06702 33.0818 9.08008 33.0625C9.25086 32.9406 9.37896 32.768 9.44626 32.5693C9.51356 32.3706 9.51665 32.1557 9.45508 31.9551C9.45508 31.9551 9.34003 31.576 9.22266 31.0918C9.10529 30.6076 9 29.997 9 29.75C9 28.6214 9.37746 27.7649 10.1582 27.1113C10.8506 26.5318 11.9928 26.1591 13.5039 26.0703ZM36.5039 26.0703L36.7656 26.5098C36.8541 26.659 36.9798 26.7826 37.1304 26.8686C37.2811 26.9545 37.4515 26.9998 37.625 27C38.562 27 39.0476 27.3229 39.4219 27.8203C39.7961 28.3178 40 29.0561 40 29.75C40 29.997 39.8947 30.6076 39.7773 31.0918C39.66 31.576 39.5449 31.9551 39.5449 31.9551C39.4834 32.1557 39.4864 32.3706 39.5537 32.5693C39.621 32.768 39.7491 32.9406 39.9199 33.0625C39.933 33.0818 40 33.1726 40 33.5C40 33.9583 39.901 34.0287 39.918 34.0117C39.9349 33.9948 39.9583 34 39.875 34C39.6287 34 39.3911 34.0909 39.2076 34.2552C39.0242 34.4196 38.9078 34.6458 38.8809 34.8906C38.8393 35.2685 38.6438 35.8231 38.4141 36.2539C38.2992 36.4693 38.1757 36.6567 38.082 36.7773C37.9883 36.898 37.8741 36.946 38.043 36.8594C37.8793 36.9435 37.742 37.0712 37.6462 37.2283C37.5504 37.3854 37.4998 37.566 37.5 37.75V40C37.5004 40.1215 37.5229 40.242 37.5664 40.3555C37.9632 41.3963 38.8693 41.9652 39.7793 42.3926C40.6893 42.8199 41.6978 43.1378 42.6328 43.5156C43.5678 43.8934 44.4134 44.3282 44.9961 44.875C45.3358 45.1938 45.5727 45.5672 45.7461 46H27.4238C27.5794 45.6155 27.6319 45.1087 27.8945 44.8262C28.3944 44.2884 29.1062 43.8692 29.9121 43.4961C30.718 43.123 31.6025 42.8046 32.4199 42.3711C33.2373 41.9376 34.057 41.3446 34.4336 40.3555C34.4771 40.242 34.4996 40.1215 34.5 40V37.75C34.5 37.5658 34.4491 37.3851 34.353 37.2279C34.2568 37.0708 34.1191 36.9432 33.9551 36.8594C34.1237 36.9457 34.0097 36.8978 33.916 36.7773C33.8223 36.6568 33.7008 36.4692 33.5859 36.2539C33.3563 35.8233 33.1603 35.2681 33.1191 34.8906C33.0922 34.6458 32.9758 34.4196 32.7924 34.2552C32.6089 34.0909 32.3713 34 32.125 34C32.0417 34 32.0651 33.9948 32.082 34.0117C32.099 34.0287 32 33.9583 32 33.5C32 33.1726 32.067 33.0818 32.0801 33.0625C32.2509 32.9406 32.379 32.768 32.4463 32.5693C32.5136 32.3706 32.5166 32.1557 32.4551 31.9551C32.4551 31.9551 32.34 31.576 32.2227 31.0918C32.1053 30.6076 32 29.997 32 29.75C32 28.6214 32.3775 27.7649 33.1582 27.1113C33.8506 26.5318 34.9928 26.1591 36.5039 26.0703Z" fill="#0050A2"/>
</svg>
