<svg width="60" height="60" viewBox="0 0 60 60" fill="none" xmlns="http://www.w3.org/2000/svg">
<path d="M29.8817 7.00753C29.7723 7.02316 29.6669 7.05441 29.5692 7.10128L5.56922 19.1013C5.06922 19.3435 4.85828 19.945 5.10047 20.445C5.34266 20.945 5.94422 21.156 6.44422 20.9138L30.0067 9.13253L53.5692 20.9138C54.0692 21.156 54.6708 20.945 54.913 20.445C55.1552 19.945 54.9442 19.3435 54.4442 19.1013L30.4442 7.10128C30.2684 7.01535 30.0731 6.9841 29.8817 7.00753ZM19.0067 20.0388C15.2528 20.0388 12.3895 20.8005 10.4442 21.57C8.49891 22.3396 7.41297 23.1638 7.41297 23.1638C7.1825 23.3435 7.04578 23.6208 7.03797 23.9138V45.0075H7.00672V49.0075C7.00672 49.5583 7.45594 50.0075 8.00672 50.0075H25.5692C25.7528 50.2732 25.7997 50.4255 26.2567 50.7888C27.0341 51.4099 28.2841 52.0075 30.0067 52.0075C31.7294 52.0075 32.9794 51.4099 33.7567 50.7888C34.2137 50.4255 34.2606 50.2732 34.4442 50.0075H52.0067C52.5575 50.0075 53.0067 49.5583 53.0067 49.0075V45.0075H52.9755V23.9138C52.9677 23.6208 52.8309 23.3435 52.6005 23.1638C52.6005 23.1638 51.5145 22.3396 49.5692 21.57C47.6239 20.8005 44.7606 20.0388 41.0067 20.0388C37.2528 20.0388 34.3895 20.8005 32.4442 21.57C31.2333 22.0505 30.4989 22.4802 30.0067 22.7888C29.5145 22.4802 28.7802 22.0505 27.5692 21.57C25.6239 20.8005 22.7606 20.0388 19.0067 20.0388ZM19.0067 21.9763C22.4989 21.9763 25.1083 22.6911 26.8505 23.3825C28.3387 23.9724 28.8348 24.3591 29.038 24.5075V44.3825C28.5341 44.0778 28.5419 43.9724 27.6317 43.6013C25.6942 42.8083 22.8075 42.0388 19.0067 42.0388C15.2059 42.0388 12.3192 42.8083 10.3817 43.6013C9.47156 43.9724 9.47937 44.0778 8.97547 44.3825V24.5075C9.17859 24.3591 9.67469 23.9724 11.163 23.3825C12.9052 22.6911 15.5145 21.9763 19.0067 21.9763ZM41.0067 21.9763C44.4989 21.9763 47.1083 22.6911 48.8505 23.3825C50.3387 23.9724 50.8348 24.3591 51.038 24.5075V44.3825C50.5341 44.0778 50.5419 43.9724 49.6317 43.6013C47.6942 42.8083 44.8075 42.0388 41.0067 42.0388C37.2059 42.0388 34.3192 42.8083 32.3817 43.6013C31.4716 43.9724 31.4794 44.0778 30.9755 44.3825V24.5075C31.1786 24.3591 31.6747 23.9724 33.163 23.3825C34.9052 22.6911 37.5145 21.9763 41.0067 21.9763ZM19.0067 43.9763C22.5419 43.9763 25.1552 44.7068 26.8817 45.4138C28.6083 46.1208 29.3817 46.7575 29.3817 46.7575C29.3934 46.7575 29.4012 46.7575 29.413 46.7575C29.4325 46.781 29.452 46.8005 29.4755 46.82C29.4872 46.82 29.495 46.82 29.5067 46.82C29.5184 46.8318 29.5262 46.8396 29.538 46.8513C29.5497 46.863 29.5575 46.8708 29.5692 46.8825C29.5887 46.8943 29.6122 46.906 29.6317 46.9138C29.6434 46.9138 29.6512 46.9138 29.663 46.9138C29.6825 46.9255 29.7059 46.9372 29.7255 46.945C29.7372 46.945 29.745 46.945 29.7567 46.945C29.7762 46.945 29.7997 46.945 29.8192 46.945C29.8309 46.9568 29.8387 46.9646 29.8505 46.9763C29.87 46.9763 29.8934 46.9763 29.913 46.9763C29.9247 46.9763 29.9325 46.9763 29.9442 46.9763C29.9637 46.9763 29.9872 46.9763 30.0067 46.9763C30.0262 46.9763 30.0497 46.9763 30.0692 46.9763C30.1786 46.9646 30.2841 46.9294 30.3817 46.8825C30.4012 46.8825 30.4247 46.8825 30.4442 46.8825C30.4559 46.8708 30.4637 46.863 30.4755 46.8513C30.4872 46.8513 30.495 46.8513 30.5067 46.8513C30.5497 46.8239 30.5927 46.7927 30.6317 46.7575C30.6317 46.7575 31.4052 46.1208 33.1317 45.4138C34.8583 44.7068 37.4716 43.9763 41.0067 43.9763C44.5419 43.9763 47.1552 44.7068 48.8817 45.4138C50.0692 45.8982 50.663 46.2732 51.0067 46.5075V48.0075H34.0067C33.62 48.0036 33.2684 48.2224 33.1005 48.57C33.1005 48.57 32.9794 48.8474 32.5067 49.2263C32.0341 49.6052 31.2841 50.0075 30.0067 50.0075C28.7294 50.0075 27.9794 49.6052 27.5067 49.2263C27.0341 48.8474 26.913 48.57 26.913 48.57C26.745 48.2224 26.3934 48.0036 26.0067 48.0075H9.00672V46.5075C9.35047 46.2732 9.94422 45.8982 11.1317 45.4138C12.8583 44.7068 15.4716 43.9763 19.0067 43.9763Z" fill="#0050A2"/>
</svg>
