<svg width="16" height="16" viewBox="0 0 16 16" fill="none" xmlns="http://www.w3.org/2000/svg">
<path d="M7.99948 1.06665C4.75948 1.06665 2.13281 3.69332 2.13281 6.93332C2.13281 10.7915 5.94721 12.6384 6.42508 13.0683C6.91308 13.5072 7.31628 14.4912 7.47895 15.0491C7.55788 15.32 7.77975 15.4571 7.99948 15.4629C8.21975 15.4565 8.44108 15.3195 8.52001 15.0491C8.68268 14.4912 9.08588 13.5077 9.57388 13.0683C10.0517 12.6384 13.8661 10.7915 13.8661 6.93332C13.8661 3.69332 11.2395 1.06665 7.99948 1.06665ZM7.99948 8.53332C7.11575 8.53332 6.39948 7.81705 6.39948 6.93332C6.39948 6.04958 7.11575 5.33332 7.99948 5.33332C8.88321 5.33332 9.59948 6.04958 9.59948 6.93332C9.59948 7.81705 8.88321 8.53332 7.99948 8.53332Z" fill="#0050A2"/>
</svg>
