<svg width="16" height="16" viewBox="0 0 16 16" fill="none" xmlns="http://www.w3.org/2000/svg">
<path d="M11.3195 9.54082C11.103 9.41388 10.8368 9.41655 10.6214 9.54455L9.53015 10.1947C9.28588 10.3403 8.98082 10.3232 8.75682 10.1483C8.36962 9.84588 7.74615 9.33708 7.20375 8.79468C6.66135 8.25228 6.15255 7.62882 5.85015 7.24162C5.67522 7.01762 5.65815 6.71255 5.80375 6.46828L6.45388 5.37708C6.58242 5.16162 6.58348 4.89335 6.45655 4.67682L4.85548 1.94188C4.70028 1.67735 4.39202 1.54722 4.09388 1.62028C3.80428 1.69068 3.42828 1.86242 3.03415 2.25708C1.80002 3.49122 1.14455 5.57282 5.78562 10.2139C10.4267 14.8549 12.5078 14.2 13.7424 12.9654C14.1376 12.5701 14.3088 12.1936 14.3798 11.9035C14.4517 11.6059 14.3238 11.2997 14.0598 11.1451C13.4006 10.7595 11.9787 9.92695 11.3195 9.54082Z" fill="#0050A2"/>
</svg>
