<svg width="16" height="16" viewBox="0 0 16 16" fill="none" xmlns="http://www.w3.org/2000/svg">
<path d="M4.26615 7.4667V6.40003H5.33281V7.4667H6.39948V6.40003H7.46615V5.33336H6.39948V4.2667H7.46615V3.20003H3.73281C3.43841 3.20003 3.19948 3.43896 3.19948 3.73336V7.4667H4.26615ZM4.26615 4.2667H5.33281V5.33336H4.26615V4.2667ZM13.3328 2.13336H9.06615C8.77175 2.13336 8.53281 2.3723 8.53281 2.6667V13.8667H13.8661V2.6667C13.8661 2.3723 13.6272 2.13336 13.3328 2.13336ZM12.7995 4.2667H11.7328V3.20003H12.7995V4.2667ZM10.6661 4.2667H9.59948V3.20003H10.6661V4.2667ZM12.7995 6.40003H11.7328V5.33336H12.7995V6.40003ZM10.6661 6.40003H9.59948V5.33336H10.6661V6.40003ZM12.7995 8.53336H11.7328V7.4667H12.7995V8.53336ZM10.6661 8.53336H9.59948V7.4667H10.6661V8.53336ZM12.7995 10.6667H11.7328V9.60003H12.7995V10.6667ZM10.6661 10.6667H9.59948V9.60003H10.6661V10.6667ZM12.7995 12.8H11.7328V11.7334H12.7995V12.8ZM10.6661 12.8H9.59948V11.7334H10.6661V12.8ZM6.93281 8.53336H2.66615C2.37175 8.53336 2.13281 8.7723 2.13281 9.0667V13.8667H7.46615V9.0667C7.46615 8.7723 7.22721 8.53336 6.93281 8.53336ZM4.26615 12.8H3.19948V11.7334H4.26615V12.8ZM4.26615 10.6667H3.19948V9.60003H4.26615V10.6667ZM6.39948 12.8H5.33281V11.7334H6.39948V12.8ZM6.39948 10.6667H5.33281V9.60003H6.39948V10.6667Z" fill="#0050A2"/>
</svg>
