<svg width="16" height="16" viewBox="0 0 16 16" fill="none" xmlns="http://www.w3.org/2000/svg">
<path d="M8.00046 1.06665C4.76046 1.06665 2.13379 3.69332 2.13379 6.93332C2.13379 10.7915 5.94819 12.6384 6.42606 13.0683C6.91406 13.5072 7.31726 14.4912 7.47992 15.0491C7.55886 15.32 7.78072 15.4571 8.00046 15.4629C8.22072 15.4565 8.44206 15.3195 8.52099 15.0491C8.68366 14.4912 9.08686 13.5077 9.57486 13.0683C10.0527 12.6384 13.8671 10.7915 13.8671 6.93332C13.8671 3.69332 11.2405 1.06665 8.00046 1.06665ZM8.00046 8.53332C7.11672 8.53332 6.40046 7.81705 6.40046 6.93332C6.40046 6.04958 7.11672 5.33332 8.00046 5.33332C8.88419 5.33332 9.60046 6.04958 9.60046 6.93332C9.60046 7.81705 8.88419 8.53332 8.00046 8.53332Z" fill="#0050A2"/>
</svg>
