<svg width="30" height="30" viewBox="0 0 30 30" fill="none" xmlns="http://www.w3.org/2000/svg">
<path d="M15 2.8125C14.4141 2.8125 13.8318 3.01025 13.3301 3.36914L11.7773 4.45312L9.99023 4.6875H9.96094L9.93164 4.7168C8.73779 4.98413 7.79663 5.92529 7.5293 7.11914L7.5 7.14844V7.17773L7.26562 8.99414L6.18164 10.4004L6.15234 10.4297V10.459C5.49683 11.5063 5.46753 12.8577 6.18164 13.8574L7.29492 15.4102L7.58789 17.0215L4.57031 21.6211L3.60352 23.0566H8.08594L9.16992 25.5762L9.84375 27.1875L10.8105 25.7227L13.7695 21.2695C14.5642 21.5955 15.4614 21.6248 16.2305 21.2695L19.1895 25.7227L20.1562 27.1875L20.8301 25.5762L21.9141 23.0566H26.3965L25.4297 21.6211L22.5 17.168L22.7344 15.4102L23.8184 13.8574L23.8477 13.8281V13.7988C24.5032 12.7515 24.5325 11.4294 23.8184 10.4297L22.7344 8.87695L22.3828 7.11914H22.4121C22.4084 7.09717 22.3865 7.08252 22.3828 7.06055C22.2144 5.83374 21.2439 4.83765 20.0098 4.6875H19.9805L18.2227 4.45312L16.6699 3.36914C16.1682 3.01025 15.5859 2.8125 15 2.8125ZM15 4.7168C15.2161 4.7168 15.4285 4.78272 15.5859 4.89258L17.2559 6.09375L17.4609 6.24023L17.6953 6.26953L19.7461 6.5625H19.7754C20.1965 6.61011 20.4895 6.90308 20.5371 7.32422V7.38281L20.918 9.46289L20.9473 9.66797L21.0938 9.84375L22.2949 11.5137C22.5183 11.825 22.5476 12.3523 22.2656 12.8027L20.9473 14.6484L20.918 14.8828L20.625 16.9336V16.9629C20.6067 17.1167 20.5554 17.2595 20.4785 17.373L20.4199 17.4023V17.4316C20.2844 17.5928 20.0977 17.699 19.8633 17.7246H19.8047L17.666 18.1055L17.4316 18.1348L17.2559 18.2812L15.5859 19.4824C15.2747 19.7058 14.718 19.7351 14.2676 19.4531L12.7441 18.2812L12.5684 18.1348L12.3047 18.1055L10.2539 17.8125H10.2246C9.9353 17.7795 9.71191 17.6294 9.58008 17.4023C9.52148 17.2998 9.47754 17.179 9.46289 17.0508V16.9922L9.08203 14.8535L9.05273 14.6191L8.90625 14.4434L7.70508 12.7734C7.48169 12.4622 7.45239 11.9055 7.73438 11.4551L8.90625 9.93164L9.05273 9.75586L9.08203 9.49219L9.3457 7.5293C9.34937 7.51465 9.37134 7.51465 9.375 7.5C9.49219 7.04224 9.85474 6.67969 10.3125 6.5625C10.3271 6.55884 10.3271 6.53686 10.3418 6.5332L12.3047 6.26953L12.5391 6.24023L12.7441 6.09375L14.4141 4.89258C14.5715 4.78272 14.7839 4.7168 15 4.7168ZM21.4746 18.9844L22.9102 21.1816H20.6543L20.4199 21.7676L19.7754 23.2617L17.7832 20.2148L18.2227 19.8926L20.0684 19.5703V19.5996C20.0903 19.5959 20.105 19.574 20.127 19.5703C20.6323 19.5007 21.0901 19.2883 21.4746 18.9844ZM8.52539 19.0137C8.92456 19.3726 9.43359 19.6216 9.99023 19.6875C10.0012 19.6875 10.0085 19.6875 10.0195 19.6875L11.8066 19.9219L12.2168 20.2441L10.2246 23.2617L9.58008 21.7676L9.3457 21.1816H7.08984L8.52539 19.0137Z" fill="white"/>
</svg>
