<svg width="50" height="50" viewBox="0 0 50 50" fill="none" xmlns="http://www.w3.org/2000/svg">
<path d="M4 0V48H28C28.3594 48.0039 28.6953 47.8164 28.8789 47.5039C29.0586 47.1914 29.0586 46.8086 28.8789 46.4961C28.6953 46.1836 28.3594 45.9961 28 46H6V2H24V16H38V35C37.9961 35.3594 38.1836 35.6953 38.4961 35.8789C38.8086 36.0586 39.1914 36.0586 39.5039 35.8789C39.8164 35.6953 40.0039 35.3594 40 35V14.5938L39.7188 14.2812L25.7188 0.28125L25.4062 0H4ZM26 3.4375L36.5625 14H26V3.4375ZM47.6875 27.5312L47.1562 28.3438L35.5 46.4688L27.6875 39.375L26.9375 38.6875L25.5938 40.1562L26.3125 40.8438L35.0312 48.75L35.9062 49.5312L36.5312 48.5312L48.8438 29.4375L49.375 28.5938L47.6875 27.5312Z" fill="#0050A2"/>
</svg>
