<svg width="50" height="50" viewBox="0 0 50 50" fill="none" xmlns="http://www.w3.org/2000/svg">
<path d="M25 1C11.2227 1 0 10.8789 0 23.1875C0 29.2344 2.77344 34.6641 7.21875 38.6875C6.54688 40.7617 5.04688 42.3984 3.53125 43.6562C2.71484 44.332 1.93359 44.9102 1.3125 45.4688C1.00391 45.7461 0.722656 46.0273 0.5 46.375C0.277344 46.7227 0.078125 47.2188 0.21875 47.75L0.34375 48.1562L0.6875 48.375C1.97656 49.1172 3.58203 49.2461 5.3125 49.125C7.04297 49.0039 8.92969 48.6055 10.7812 48.0938C14.375 47.1016 17.75 45.6875 19.5312 44.9062C21.2891 45.2734 23.0547 45.5 24.9062 45.5C38.6836 45.5 49.9062 35.6211 49.9062 23.3125C49.9062 11.0078 38.7812 1 25 1ZM25 3C37.8203 3 47.9062 12.2148 47.9062 23.3125C47.9062 34.4023 37.7305 43.5 24.9062 43.5C23.0781 43.5 21.3555 43.3203 19.625 42.9375L19.2812 42.8438L19 43C17.3281 43.7383 13.793 45.1797 10.25 46.1562C8.47656 46.6445 6.71094 47.0195 5.1875 47.125C4.16797 47.1953 3.53906 46.9531 2.84375 46.7812C3.33984 46.3555 4.01953 45.8477 4.8125 45.1875C6.55469 43.7422 8.64453 41.7305 9.375 38.75L9.53125 38.125L9.03125 37.75C4.625 34.0156 2 28.875 2 23.1875C2 12.0977 12.1758 3 25 3ZM23.8125 12.8125C23.5117 12.8125 23.4062 12.9883 23.4062 13.1875V15.8125C23.4062 16.1133 23.6133 16.1875 23.8125 16.1875H26.1875C26.4883 16.1875 26.5938 16.0117 26.5938 15.8125V13.1875C26.5938 12.8867 26.3867 12.8125 26.1875 12.8125H23.8125ZM23.9062 20.0938C23.6055 20.0938 23.5 20.3008 23.5 20.5V33.9062C23.5 34.207 23.707 34.3125 23.9062 34.3125V34.4062H26.1875C26.4883 34.4062 26.5938 34.1992 26.5938 34V20.5C26.5938 20.1992 26.3867 20.0938 26.1875 20.0938H23.9062Z" fill="#0050A2"/>
</svg>
