<svg width="50" height="50" viewBox="0 0 50 50" fill="none" xmlns="http://www.w3.org/2000/svg">
<path d="M9 1C7.35547 1 6 2.35547 6 4V46C6 47.6445 7.35547 49 9 49H41C42.6445 49 44 47.6445 44 46V4C44 2.35547 42.6445 1 41 1H9ZM9 3H41C41.5547 3 42 3.44531 42 4V46C42 46.5547 41.5547 47 41 47H9C8.44531 47 8 46.5547 8 46V4C8 3.44531 8.44531 3 9 3ZM25 9C18.9531 9 14 13.9531 14 20C14 26.0469 18.9531 31 25 31C31.0469 31 36 26.0469 36 20C36 13.9531 31.0469 9 25 9ZM24 11.3125V19H21.0625C21.1797 16.7891 21.6406 14.7891 22.3438 13.375C22.8477 12.3555 23.4297 11.6758 24 11.3125ZM26 11.3125C26.5703 11.6758 27.1523 12.3555 27.6562 13.375C28.3594 14.7891 28.8203 16.7891 28.9375 19H26V11.3125ZM20.8125 12.0312C20.7266 12.1836 20.6406 12.3398 20.5625 12.5C19.6875 14.2617 19.1484 16.5156 19.0312 19H16.0625C16.4023 15.9844 18.2383 13.3906 20.8125 12.0312ZM29.1875 12.0312C31.7617 13.3906 33.5977 15.9844 33.9375 19H30.9688C30.8516 16.5156 30.3125 14.2617 29.4375 12.5C29.3594 12.3398 29.2734 12.1836 29.1875 12.0312ZM16.0625 21H19.0312C19.1484 23.4844 19.6875 25.7383 20.5625 27.5C20.6406 27.6602 20.7266 27.8164 20.8125 27.9688C18.2383 26.6094 16.4023 24.0156 16.0625 21ZM21.0625 21H24V28.6875C23.4297 28.3242 22.8477 27.6445 22.3438 26.625C21.6406 25.2109 21.1797 23.2109 21.0625 21ZM26 21H28.9375C28.8203 23.2109 28.3594 25.2109 27.6562 26.625C27.1523 27.6445 26.5703 28.3242 26 28.6875V21ZM30.9688 21H33.9375C33.5977 24.0156 31.7617 26.6094 29.1875 27.9688C29.2734 27.8164 29.3594 27.6602 29.4375 27.5C30.3125 25.7383 30.8516 23.4844 30.9688 21ZM12.8125 38C12.2617 38.0508 11.8555 38.543 11.9062 39.0938C11.957 39.6445 12.4492 40.0508 13 40H37C37.3594 40.0039 37.6953 39.8164 37.8789 39.5039C38.0586 39.1914 38.0586 38.8086 37.8789 38.4961C37.6953 38.1836 37.3594 37.9961 37 38H13C12.9688 38 12.9375 38 12.9062 38C12.875 38 12.8438 38 12.8125 38Z" fill="#0050A2"/>
</svg>
