<svg width="50" height="50" viewBox="0 0 50 50" fill="none" xmlns="http://www.w3.org/2000/svg">
<path d="M2.8457 6C1.2767 6 0 7.29758 0 8.89258V43C0 43.552 0.448 44 1 44H27.2676C26.8176 43.375 26.4256 42.707 26.1016 42H2V20H44V27.2676C44.734 27.7966 45.404 28.4031 46 29.0801V8.89258C46 7.29758 44.7233 6 43.1543 6H2.8457ZM2.8457 8H43.1543C43.6213 8 44 8.39958 44 8.89258V18H2V8.89258C2 8.39958 2.3787 8 2.8457 8ZM17 10V11V16H41V10H17ZM6 11C5.46957 11 4.96086 11.2107 4.58579 11.5858C4.21071 11.9609 4 12.4696 4 13C4 13.5304 4.21071 14.0391 4.58579 14.4142C4.96086 14.7893 5.46957 15 6 15C6.53043 15 7.03914 14.7893 7.41421 14.4142C7.78929 14.0391 8 13.5304 8 13C8 12.4696 7.78929 11.9609 7.41421 11.5858C7.03914 11.2107 6.53043 11 6 11ZM12 11C11.4696 11 10.9609 11.2107 10.5858 11.5858C10.2107 11.9609 10 12.4696 10 13C10 13.5304 10.2107 14.0391 10.5858 14.4142C10.9609 14.7893 11.4696 15 12 15C12.5304 15 13.0391 14.7893 13.4142 14.4142C13.7893 14.0391 14 13.5304 14 13C14 12.4696 13.7893 11.9609 13.4142 11.5858C13.0391 11.2107 12.5304 11 12 11ZM19 12H39V14H19V12ZM37 27C31.489 27 27 31.489 27 37C27 42.511 31.489 47 37 47C39.3965 47 41.5974 46.149 43.3223 44.7363L48.293 49.707L49.707 48.293L44.7363 43.3223C46.149 41.5974 47 39.3965 47 37C47 31.489 42.511 27 37 27ZM37 29C41.4301 29 45 32.5699 45 37C45 41.4301 41.4301 45 37 45C32.5699 45 29 41.4301 29 37C29 32.5699 32.5699 29 37 29Z" fill="#0050A2"/>
</svg>
