<svg width="16" height="16" viewBox="0 0 16 16" fill="none" xmlns="http://www.w3.org/2000/svg">
<path d="M14.3379 8.84212C14.3747 8.56585 14.3997 8.28585 14.3997 7.99998C14.3997 4.46558 11.5341 1.59998 7.99974 1.59998C7.71387 1.59998 7.43387 1.62505 7.15761 1.66185C6.54854 1.28692 5.83387 1.06665 5.06641 1.06665C2.85734 1.06665 1.06641 2.85758 1.06641 5.06665C1.06641 5.83412 1.28667 6.54878 1.66161 7.15785C1.62481 7.43412 1.59974 7.71412 1.59974 7.99998C1.59974 11.5344 4.46534 14.4 7.99974 14.4C8.28561 14.4 8.56561 14.3749 8.84187 14.3381C9.45094 14.7131 10.1656 14.9333 10.9331 14.9333C13.1421 14.9333 14.9331 13.1424 14.9331 10.9333C14.9331 10.1659 14.7128 9.45118 14.3379 8.84212ZM8.07921 11.7333C6.00134 11.7333 4.80827 10.6443 4.80827 9.57545C4.80827 9.03038 5.37894 8.85598 5.60721 8.85598C6.13467 8.85598 6.31014 9.28638 6.40614 9.48372C6.94214 10.5856 7.45734 10.4405 7.96507 10.4885C8.41361 10.5307 9.46641 10.3328 9.46641 9.56372C9.46641 9.49012 9.58214 8.98985 8.67334 8.74185C8.09254 8.58292 7.06854 8.38825 6.22587 8.06398C5.43334 7.75892 4.96827 7.13065 4.96827 6.32105C4.96827 5.91625 5.17574 4.26665 7.98214 4.26665C9.85521 4.26665 10.8536 5.22612 10.8536 6.07038C10.8536 6.26452 10.7795 6.43572 10.6307 6.58985C10.4819 6.74398 10.0627 6.96958 9.60347 6.67572C9.48774 6.60158 9.39227 6.44745 9.27814 6.24745C9.14054 5.99625 8.91547 5.51092 7.87921 5.51092C6.87387 5.51092 6.59494 5.99038 6.59494 6.19038C6.59494 6.86238 7.87761 7.00372 8.22214 7.09278C9.47974 7.41705 11.1907 7.71518 11.1907 9.41065C11.1907 11.3573 9.16507 11.7333 8.07921 11.7333Z" fill="#262626"/>
</svg>
