<svg width="18" height="18" viewBox="0 0 18 18" fill="none" xmlns="http://www.w3.org/2000/svg">
<path d="M17.4402 12.1304C17.802 11.1554 18 10.1008 18 8.99995C18 7.89907 17.802 6.84455 17.4402 5.86953L9 5.08691L0.559793 5.86953C0.198035 6.84455 0 7.89907 0 8.99995C0 10.1008 0.198035 11.1554 0.559793 12.1304L9 12.913L17.4402 12.1304Z" fill="#F0F0F0"/>
<path d="M8.99994 18C12.8696 18 16.1685 15.5576 17.4401 12.1304H0.559692C1.83136 15.5576 5.13022 18 8.99994 18Z" fill="#D80027"/>
<path d="M8.99993 0C5.13022 0 1.83136 2.44237 0.559692 5.86958H17.4401C16.1685 2.44237 12.8696 0 8.99993 0Z" fill="#D80027"/>
</svg>
