<svg width="18" height="18" viewBox="0 0 18 18" fill="none" xmlns="http://www.w3.org/2000/svg">
<path d="M9 18C13.9706 18 18 13.9706 18 9C18 4.02944 13.9706 0 9 0C4.02944 0 0 4.02944 0 9C0 13.9706 4.02944 18 9 18Z" fill="#F0F0F0"/>
<path d="M1.86048 3.5206C1.15353 4.44039 0.620453 5.50053 0.310059 6.65221H4.9921L1.86048 3.5206Z" fill="#0052B4"/>
<path d="M17.69 6.65224C17.3796 5.50059 16.8465 4.44045 16.1396 3.52066L13.0081 6.65224H17.69Z" fill="#0052B4"/>
<path d="M0.310059 11.3479C0.620488 12.4996 1.15356 13.5597 1.86048 14.4795L4.99199 11.3479H0.310059Z" fill="#0052B4"/>
<path d="M14.4795 1.86052C13.5597 1.15356 12.4996 0.620488 11.3479 0.310059V4.99206L14.4795 1.86052Z" fill="#0052B4"/>
<path d="M3.52063 16.1395C4.44042 16.8465 5.50056 17.3796 6.65221 17.69V13.008L3.52063 16.1395Z" fill="#0052B4"/>
<path d="M6.65217 0.310059C5.50053 0.620488 4.44039 1.15356 3.52063 1.86048L6.65217 4.99202V0.310059Z" fill="#0052B4"/>
<path d="M11.3478 17.69C12.4994 17.3796 13.5596 16.8465 14.4793 16.1396L11.3478 13.008V17.69Z" fill="#0052B4"/>
<path d="M13.0081 11.3479L16.1396 14.4795C16.8465 13.5598 17.3796 12.4996 17.69 11.3479H13.0081Z" fill="#0052B4"/>
<path d="M17.9238 7.8261H10.174H10.1739V0.0761836C9.78964 0.0261563 9.39786 0 9 0C8.60207 0 8.21035 0.0261563 7.8261 0.0761836V7.82603V7.82606H0.0761836C0.0261563 8.21036 0 8.60214 0 9C0 9.39793 0.0261563 9.78964 0.0761836 10.1739H7.82603H7.82606V17.9238C8.21036 17.9738 8.60207 18 9 18C9.39786 18 9.78964 17.9739 10.1739 17.9238V10.174V10.1739H17.9238C17.9738 9.78964 18 9.39793 18 9C18 8.60214 17.9738 8.21035 17.9238 7.8261Z" fill="#D80027"/>
<path d="M11.3478 11.3479L15.3639 15.364C15.5486 15.1793 15.7248 14.9863 15.8929 14.7862L12.4546 11.3478H11.3478V11.3479Z" fill="#D80027"/>
<path d="M6.65213 11.3479H6.65206L2.63599 15.364C2.82063 15.5487 3.01367 15.7249 3.21378 15.893L6.65213 12.4546V11.3479Z" fill="#D80027"/>
<path d="M6.6522 6.65226V6.65219L2.63609 2.63605C2.45138 2.82069 2.27517 3.01373 2.10706 3.21384L5.54544 6.65223H6.6522V6.65226Z" fill="#D80027"/>
<path d="M11.3478 6.65223L15.3639 2.63605C15.1793 2.45134 14.9862 2.27514 14.7861 2.10706L11.3478 5.54544V6.65223Z" fill="#D80027"/>
</svg>
