<svg width="18" height="18" viewBox="0 0 18 18" fill="none" xmlns="http://www.w3.org/2000/svg">
<g clip-path="url(#clip0)">
<path d="M12.1304 0.559793C11.1554 0.198035 10.1008 0 8.99995 0C7.89907 0 6.84452 0.198035 5.86953 0.559793L5.08691 9L5.86953 17.4402C6.84452 17.802 7.89907 18 8.99995 18C10.1008 18 11.1554 17.802 12.1304 17.4402L12.913 9L12.1304 0.559793Z" fill="#FFDA44"/>
<path d="M18.0001 9.00002C18.0001 5.13037 15.5577 1.83145 12.1305 0.559845V17.4403C15.5577 16.1686 18.0001 12.8697 18.0001 9.00002Z" fill="#D80027"/>
<path d="M0 9.00002C0 12.8697 2.44237 16.1686 5.86958 17.4403V0.559845C2.44237 1.83145 0 5.13037 0 9.00002Z" fill="black"/>
</g>
<defs>
<clipPath id="clip0">
<rect width="18" height="18" fill="white"/>
</clipPath>
</defs>
</svg>
