<svg width="18" height="18" viewBox="0 0 18 18" fill="none" xmlns="http://www.w3.org/2000/svg">
<g clip-path="url(#clip0)">
<path d="M0.559814 12.1304C1.83145 15.5576 5.13034 18 9.00002 18C12.8697 18 16.1686 15.5576 17.4402 12.1304L9.00002 11.3479L0.559814 12.1304Z" fill="#FFDA44"/>
<path d="M9.00002 0C5.13034 0 1.83145 2.44237 0.559814 5.86958L9.00002 6.65216L17.4402 5.86955C16.1686 2.44237 12.8697 0 9.00002 0Z" fill="black"/>
<path d="M0.559793 5.86954C0.198035 6.84453 0 7.89907 0 8.99996C0 10.1008 0.198035 11.1554 0.559793 12.1304H17.4402C17.802 11.1554 18 10.1008 18 8.99996C18 7.89907 17.802 6.84453 17.4402 5.86954H0.559793Z" fill="#D80027"/>
</g>
<defs>
<clipPath id="clip0">
<rect width="18" height="18" fill="white"/>
</clipPath>
</defs>
</svg>
