<svg width="18" height="18" viewBox="0 0 18 18" fill="none" xmlns="http://www.w3.org/2000/svg">
<g clip-path="url(#clip0)">
<path d="M9 18C13.9706 18 18 13.9706 18 9C18 4.02944 13.9706 0 9 0C4.02944 0 0 4.02944 0 9C0 13.9706 4.02944 18 9 18Z" fill="#F0F0F0"/>
<path d="M18 9.00005C18 5.1304 15.5576 1.83148 12.1304 0.559875V17.4403C15.5576 16.1686 18 12.8698 18 9.00005Z" fill="#FF9811"/>
<path d="M0 9.00005C0 12.8698 2.44237 16.1686 5.86958 17.4403V0.559875C2.44237 1.83148 0 5.1304 0 9.00005Z" fill="#6DA544"/>
</g>
<defs>
<clipPath id="clip0">
<rect width="18" height="18" fill="white"/>
</clipPath>
</defs>
</svg>
