<svg width="18" height="18" viewBox="0 0 18 18" fill="none" xmlns="http://www.w3.org/2000/svg">
<g clip-path="url(#clip0)">
<path d="M12.0005 0.514404L10.9502 3.42642C11.9196 6.62576 11.9196 11.3744 10.9502 14.5738L12.0005 17.4856C15.4955 16.2497 18 12.9181 18 8.99977C18 5.08201 15.4955 1.75032 12.0005 0.514404Z" fill="#E63026"/>
<path d="M12.0008 3.42639V0.514376C11.0622 0.182446 10.0527 0.00012207 9.00024 0.00012207C10.388 0.00012207 8.4638 4.7035 12.0008 3.42639Z" fill="#F3F4F5"/>
<path d="M9.00013 17.9999C10.0525 17.9999 11.0621 17.8176 12.0007 17.4856V14.5739C8.49922 14.2245 9.00013 17.9999 9.00013 17.9999Z" fill="#F3F4F5"/>
<path d="M0 8.99979C0 12.9313 2.52149 16.2716 6.03463 17.4975V0.502686C2.52149 1.7286 0 5.06892 0 8.99979Z" fill="#359846"/>
<path d="M12.0005 14.5739V3.42639C11.3878 1.40369 10.3878 0.00012207 8.99996 0.00012207C7.96062 0.00012207 6.96346 0.178608 6.03467 0.502748V17.4977C6.96346 17.8218 7.96062 18 8.99996 18C10.3878 18 11.3878 16.5964 12.0005 14.5739Z" fill="#F3F4F5"/>
</g>
<defs>
<clipPath id="clip0">
<rect width="18" height="18" fill="white"/>
</clipPath>
</defs>
</svg>
