<svg width="18" height="18" viewBox="0 0 18 18" fill="none" xmlns="http://www.w3.org/2000/svg">
<path d="M9 18C13.9706 18 18 13.9706 18 9C18 4.02944 13.9706 0 9 0C4.02944 0 0 4.02944 0 9C0 13.9706 4.02944 18 9 18Z" fill="#F0F0F0"/>
<path d="M18.0001 8.9999C18.0001 5.43176 15.9236 2.34869 12.9131 0.892944V17.1068C15.9236 15.6511 18.0001 12.5681 18.0001 8.9999Z" fill="#D80027"/>
<path d="M0 8.9999C0 12.5681 2.0765 15.6511 5.08697 17.1069V0.892944C2.0765 2.34869 0 5.43176 0 8.9999Z" fill="#D80027"/>
<path d="M10.5653 10.1737L12.1305 9.39113L11.3479 8.99984V8.21723L9.78266 8.99984L10.5653 7.43461H9.78266L9.00005 6.26071L8.21743 7.43461H7.43482L8.21743 8.99984L6.65221 8.21723V8.99984L5.86963 9.39113L7.43482 10.1737L7.04353 10.9564H8.60876V12.1303H9.39134V10.9564H10.9566L10.5653 10.1737Z" fill="#D80027"/>
</svg>
