<svg width="18" height="18" viewBox="0 0 18 18" fill="none" xmlns="http://www.w3.org/2000/svg">
<path d="M9 18C13.9706 18 18 13.9706 18 9C18 4.02944 13.9706 0 9 0C4.02944 0 0 4.02944 0 9C0 13.9706 4.02944 18 9 18Z" fill="#D80027"/>
<path d="M4.92539 5.47754L5.70234 7.86816H8.21602L6.18398 9.34824L6.96094 11.7389L4.92539 10.2623L2.88984 11.7389L3.67031 9.34824L1.63477 7.86816H4.14844L4.92539 5.47754Z" fill="#FFDA44"/>
<path d="M10.67 13.9396L10.0758 13.2083L9.19692 13.5493L9.70669 12.7583L9.11255 12.0235L10.0231 12.2661L10.5364 11.4751L10.5856 12.4173L11.4996 12.6599L10.6172 12.9974L10.67 13.9396Z" fill="#FFDA44"/>
<path d="M11.8512 11.795L12.1325 10.895L11.3625 10.3501L12.3047 10.336L12.5825 9.43604L12.8883 10.329L13.8305 10.3185L13.0747 10.881L13.377 11.7739L12.6071 11.229L11.8512 11.795Z" fill="#FFDA44"/>
<path d="M13.4437 6.60594L13.0289 7.4532L13.7039 8.11063L12.7722 7.97703L12.3574 8.82078L12.1957 7.89266L11.2605 7.75906L12.0972 7.31961L11.9355 6.38797L12.6105 7.04539L13.4437 6.60594Z" fill="#FFDA44"/>
<path d="M10.6946 4.03955L10.6243 4.97822L11.4997 5.3333L10.5821 5.5583L10.5153 6.50049L10.0196 5.69893L9.10205 5.92393L9.71025 5.20322L9.21104 4.40518L10.0864 4.76025L10.6946 4.03955Z" fill="#FFDA44"/>
</svg>
