<svg width="18" height="18" viewBox="0 0 18 18" fill="none" xmlns="http://www.w3.org/2000/svg">
<path d="M9 18C13.9706 18 18 13.9706 18 9C18 4.02944 13.9706 0 9 0C4.02944 0 0 4.02944 0 9C0 13.9706 4.02944 18 9 18Z" fill="#F0F0F0"/>
<path d="M14.087 7.8262C13.8131 7.8262 13.4739 7.8262 12.9131 7.8262C12.9131 9.98732 11.1611 11.7392 9.00002 11.7392C6.83886 11.7392 5.08699 9.98732 5.08699 7.8262C4.70871 7.8262 4.2913 7.8262 3.91309 7.8262C3.91309 10.1541 5.4767 12.1167 7.61103 12.7212C7.37703 13.1657 7.41268 13.7253 7.74695 14.1425C8.18598 13.7906 8.64051 13.4263 9.02611 13.1174C9.4117 13.4264 9.86627 13.7906 10.3053 14.1425C10.6428 13.7212 10.6761 13.1544 10.4343 12.7078C12.5452 12.0885 14.087 10.1375 14.087 7.8262Z" fill="#6DA544"/>
<path d="M5.86963 7.43484C5.86963 7.43484 5.86963 9.39135 7.82614 9.39135L8.21743 9.78264H9.00005C9.00005 9.78264 9.39134 8.60874 10.1739 8.60874C10.1739 8.60874 10.1739 7.82613 10.9566 7.82613C11.7392 7.82613 12.1305 7.82613 12.1305 7.82613C12.1305 7.82613 11.7392 6.2609 13.6957 5.087L12.9131 4.69571C12.9131 4.69571 10.1739 6.65223 8.21743 6.26094V7.04355H7.43482L7.04353 6.65226L5.86963 7.43484Z" fill="#FFDA44"/>
</svg>
