<svg width="18" height="18" viewBox="0 0 18 18" fill="none" xmlns="http://www.w3.org/2000/svg">
<g clip-path="url(#clip0)">
<path d="M9 18C13.9706 18 18 13.9706 18 9C18 4.02944 13.9706 0 9 0C4.02944 0 0 4.02944 0 9C0 13.9706 4.02944 18 9 18Z" fill="#F0F0F0"/>
<path d="M9.00002 0C5.13034 0 1.83145 2.44237 0.559814 5.86958H17.4403C16.1686 2.44237 12.8697 0 9.00002 0Z" fill="#A2001D"/>
<path d="M9.00002 18C12.8697 18 16.1686 15.5577 17.4402 12.1304H0.559814C1.83145 15.5577 5.13034 18 9.00002 18Z" fill="#0052B4"/>
</g>
<defs>
<clipPath id="clip0">
<rect width="18" height="18" fill="white"/>
</clipPath>
</defs>
</svg>
