<svg width="18" height="18" viewBox="0 0 18 18" fill="none" xmlns="http://www.w3.org/2000/svg">
<path d="M9.00034 17.9999C13.9707 17.9999 17.9999 13.9707 17.9999 9.00031C17.9999 4.02995 13.9707 0.000686646 9.00034 0.000686646C4.02999 0.000686646 0.000732422 4.02995 0.000732422 9.00031C0.000732422 13.9707 4.02999 17.9999 9.00034 17.9999Z" fill="white"/>
<path d="M17.4856 5.99918H11.9404C12.1813 7.92172 12.1827 10.0401 11.9451 11.965H17.4974C17.8216 11.0364 17.9998 10.0391 17.9998 9.00002C17.9999 7.9473 17.8176 6.93778 17.4856 5.99918Z" fill="#EFECEC"/>
<path d="M9.80835 17.9627C13.3746 17.645 16.3416 15.2472 17.489 11.9908C17.492 11.9821 17.4945 11.9735 17.4976 11.9652H11.9452C11.5957 14.7951 11.1916 17.2044 9.80835 17.9627Z" fill="#0B0B0B"/>
<path d="M0 8.99997C0 10.0392 0.178488 11.0363 0.502326 11.965H12.4083C12.6462 10.0399 12.6445 7.92167 12.4039 5.99911H0.514297C0.182326 6.93776 0 7.94728 0 8.99997Z" fill="#EFEFEF"/>
<path d="M11.9405 5.9993H17.4856C17.4848 5.99645 17.4839 5.99406 17.4828 5.99147C16.331 2.7437 13.3681 0.354199 9.80821 0.0370101C11.186 0.792153 11.5884 3.18465 11.9405 5.9993Z" fill="#49A948"/>
<path d="M0.517254 5.99146C0.516418 5.99401 0.515544 5.99644 0.514404 5.99929H12.4041C12.0516 3.1846 11.1858 0.792153 9.80821 0.0370101C9.54175 0.0134118 9.27249 6.10356e-05 8.99996 6.10356e-05C5.08482 2.30352e-05 1.75542 2.50048 0.517254 5.99146Z" fill="#49A948"/>
<path d="M12.4084 11.9651H0.502441C0.505443 11.9735 0.508255 11.982 0.511105 11.9907C1.74433 15.4906 5.07852 17.9999 8.99993 17.9999C9.2725 17.9999 9.54192 17.9865 9.80834 17.9627C11.1917 17.2044 12.059 14.795 12.4084 11.9651Z" fill="#151515"/>
<path d="M0 8.99992C0 12.7462 2.29001 15.9573 5.54623 17.3119V0.687653C2.29001 2.04206 0 5.25309 0 8.99992Z" fill="#E73B36"/>
</svg>
