<svg width="18" height="18" viewBox="0 0 18 18" fill="none" xmlns="http://www.w3.org/2000/svg">
<path d="M9 18C13.9706 18 18 13.9706 18 9C18 4.02944 13.9706 0 9 0C4.02944 0 0 4.02944 0 9C0 13.9706 4.02944 18 9 18Z" fill="#F0F0F0"/>
<path d="M14.4794 1.86047C12.9618 0.693949 11.0622 0 9.0001 0C6.93805 0 5.03834 0.693984 3.52075 1.86047L9.0001 7.33978L14.4794 1.86047Z" fill="#0052B4"/>
<path d="M1.86043 3.52063C0.693984 5.03822 0 6.93789 0 8.99994C0 11.062 0.693984 12.9617 1.86047 14.4793L7.33982 8.99994L1.86043 3.52063Z" fill="#0052B4"/>
<path d="M3.52075 16.1394C5.03838 17.3059 6.93804 17.9999 9.0001 17.9999C11.0622 17.9999 12.9618 17.3059 14.4794 16.1394L9.0001 10.6601L3.52075 16.1394Z" fill="#0052B4"/>
<path d="M16.1396 14.4793C17.3061 12.9617 18.0001 11.062 18.0001 8.99994C18.0001 6.93789 17.3061 5.03822 16.1396 3.52063L10.6603 8.99994L16.1396 14.4793Z" fill="#0052B4"/>
</svg>
